<svg width="318" height="70" viewBox="0 0 318 70" fill="none" xmlns="http://www.w3.org/2000/svg">
<path d="M33.487 45.9635L34.1319 42.8687H12.4126L11.7676 45.9635H33.487ZM36.1191 33.5842L38.0888 24.2997H16.3695L14.3997 33.5842H36.1191ZM0.472168 55.2481L9.04835 14.9978H41.6274L44.4164 16.5452L46.8568 19.64L47.7457 22.7522L45.1136 35.1316L42.8999 38.2264L43.7889 41.3213L42.4815 47.511L40.2677 50.6058L36.5026 53.7006L33.0512 55.2481H0.472168Z" fill="black"/>
<path d="M81.1615 33.5842L83.1312 24.2997H61.4119L59.4421 33.5842H81.1615ZM42.3769 69.9398L52.4348 22.7522L54.6485 19.64L58.4137 16.5452L61.8476 14.9978H86.6698L89.4588 16.5452L91.8991 19.64L92.7881 22.7522L85.8679 55.2481H76.5422L79.1743 42.8687H57.455L53.6724 60.6553L42.3769 69.9398Z" fill="black"/>
<path d="M128.766 65.2976L104.31 34.3492L99.8652 55.2481H90.5569L99.7955 11.9029L124.217 42.8687L131.311 9.59048L142.624 0.288574L128.766 65.2976Z" fill="black"/>
<path d="M168.614 45.9635L173.216 24.2997H151.497L146.895 45.9635H168.614ZM135.599 55.2481L144.175 14.9978H176.755L179.544 16.5452L181.984 19.64L182.873 22.7522L177.609 47.511L175.395 50.6058L171.63 53.7006L168.178 55.2481H135.599Z" fill="black"/>
<path d="M216.289 33.5842L218.258 24.2997H196.539L194.569 33.5842H216.289ZM177.504 69.9398L187.562 22.7522L189.776 19.64L193.541 16.5452L196.975 14.9978H221.797L224.586 16.5452L227.026 19.64L227.915 22.7522L220.995 55.2481H211.669L214.301 42.8687H192.582L188.8 60.6553L177.504 69.9398Z" fill="black"/>
<path d="M263.893 65.2976L239.437 34.3492L234.992 55.2481H225.684L234.923 11.9029L259.344 42.8687L266.438 9.59048L277.751 0.288574L263.893 65.2976Z" fill="black"/>
<path d="M306.373 33.5842L308.343 24.2997H286.624L284.654 33.5842H306.373ZM267.589 69.9398L277.647 22.7522L279.86 19.64L283.626 16.5452L287.06 14.9978H311.882L314.671 16.5452L317.111 19.64L318 22.7522L311.08 55.2481H301.754L304.386 42.8687H282.667L278.884 60.6553L267.589 69.9398Z" fill="black"/>
</svg>
