<svg width="25" height="34" viewBox="0 0 25 34" fill="none" xmlns="http://www.w3.org/2000/svg">
<path fill-rule="evenodd" clip-rule="evenodd" d="M9.85088 0.962936C9.64355 0.96611 9.53331 1.07635 9.52021 1.2936C9.44952 1.38685 9.3613 1.45299 9.25568 1.49201C9.19788 1.26589 9.12077 1.04547 9.02421 0.830668C8.9801 0.720424 8.9801 0.610245 9.02421 0.5C9.32856 0.613287 9.60407 0.767643 9.85088 0.962936Z" fill="white"/>
<path fill-rule="evenodd" clip-rule="evenodd" d="M9.85088 0.962936C9.98315 1.0952 10.1154 1.22747 10.2477 1.35974C10.344 1.56045 10.4873 1.64868 10.6776 1.62427C10.876 1.83848 11.1075 1.99277 11.372 2.08721C11.3751 2.29454 11.4854 2.40478 11.7026 2.41788C11.5128 2.56793 11.4245 2.76634 11.4381 3.01308C11.3094 3.33687 11.2653 3.68956 11.3058 4.07122C11.394 4.07122 11.4822 4.07122 11.5704 4.07122C11.5704 4.2476 11.5704 4.42391 11.5704 4.60029C11.6585 4.60029 11.7467 4.60029 11.8349 4.60029C11.8349 4.68844 11.8349 4.77667 11.8349 4.86482C11.7467 4.86482 11.6585 4.86482 11.5704 4.86482C11.5704 4.95298 11.5704 5.0412 11.5704 5.12936C11.4822 5.12936 11.394 5.12936 11.3058 5.12936C11.3058 5.37187 11.3058 5.61432 11.3058 5.85683C11.0804 5.87224 10.915 5.98248 10.8098 6.1875C10.7878 6.09934 10.7657 6.01112 10.7437 5.92296C10.7108 6.18908 10.7218 6.45362 10.7768 6.71657C10.6803 6.71213 10.5921 6.73416 10.5122 6.7827C10.5236 6.71709 10.5015 6.67305 10.4461 6.65043C10.4461 6.34179 10.4461 6.03321 10.4461 5.72456C10.5167 5.37524 10.5276 5.02255 10.4792 4.66642C10.4212 4.51709 10.344 4.38482 10.2477 4.26962C10.2895 3.73572 10.2454 3.22868 10.1154 2.74855C10.0878 2.56053 10.0217 2.38415 9.91702 2.21948C9.86735 2.27741 9.83428 2.34354 9.81782 2.41788C9.79493 2.21445 9.75089 2.01605 9.68555 1.82267C9.54224 1.75733 9.42101 1.66918 9.32181 1.55814C9.2777 1.55814 9.25568 1.53612 9.25568 1.49201C9.3613 1.45299 9.44952 1.38685 9.52021 1.2936C9.53331 1.07635 9.64355 0.96611 9.85088 0.962936Z" fill="white"/>
<path fill-rule="evenodd" clip-rule="evenodd" d="M9.85088 0.962936C10.1275 1.06789 10.37 1.22225 10.5784 1.42587C10.4649 1.41734 10.3546 1.39532 10.2477 1.35974C10.1154 1.22747 9.98315 1.0952 9.85088 0.962936Z" fill="white"/>
<path fill-rule="evenodd" clip-rule="evenodd" d="M9.32181 1.55814C9.42101 1.66918 9.54224 1.75733 9.68555 1.82267C9.75089 2.01605 9.79493 2.21445 9.81782 2.41788C9.83428 2.34354 9.86735 2.27741 9.91702 2.21948C10.0217 2.38415 10.0878 2.56053 10.1154 2.74855C10.0495 2.75423 9.99446 2.73214 9.95008 2.68241C9.99062 2.90436 9.97958 3.12485 9.91702 3.34375C9.70717 2.75827 9.50877 2.16306 9.32181 1.55814Z" fill="white"/>
<path fill-rule="evenodd" clip-rule="evenodd" d="M10.2477 1.35974C10.3546 1.39532 10.4649 1.41734 10.5784 1.42587C11.2764 1.85938 11.9156 2.36642 12.4962 2.94695C12.3088 2.86573 12.1215 2.77758 11.9341 2.68241C11.7578 2.78254 11.5924 2.89272 11.4381 3.01308C11.4245 2.76634 11.5128 2.56793 11.7026 2.41788C11.4854 2.40478 11.3751 2.29454 11.372 2.08721C11.1075 1.99277 10.876 1.83848 10.6776 1.62427C10.4873 1.64868 10.344 1.56045 10.2477 1.35974Z" fill="white"/>
<path fill-rule="evenodd" clip-rule="evenodd" d="M10.1154 2.74855C10.2454 3.22868 10.2895 3.73572 10.2477 4.26962C10.2477 4.31373 10.2257 4.33575 10.1816 4.33575C10.1923 4.2017 10.1812 4.06943 10.1485 3.93895C10.1232 3.90218 10.0901 3.88016 10.0493 3.87282C9.9811 3.71006 9.93699 3.53375 9.91702 3.34375C9.97958 3.12485 9.99062 2.90436 9.95008 2.68241C9.99446 2.73214 10.0495 2.75423 10.1154 2.74855Z" fill="white"/>
<path fill-rule="evenodd" clip-rule="evenodd" d="M12.4962 2.94695C12.4988 3.01857 12.5209 3.0847 12.5624 3.14535C13.0129 3.62343 13.4759 4.08636 13.9512 4.53415C14.0442 4.65372 14.1214 4.78599 14.1826 4.93096C14.4719 4.98519 14.5711 5.13948 14.4802 5.39389C14.3921 5.39389 14.3039 5.39389 14.2157 5.39389C14.2157 5.48205 14.2157 5.57027 14.2157 5.65843C14.3921 5.65843 14.5684 5.65843 14.7448 5.65843C14.7448 6.14339 14.7448 6.62841 14.7448 7.11337C15.0007 7.19928 15.2652 7.24339 15.5384 7.24564C15.5384 7.48815 15.5384 7.73059 15.5384 7.97311C15.7148 7.99513 15.8911 8.01722 16.0674 8.03924C16.0674 8.1274 16.0674 8.21562 16.0674 8.30377C16.2451 8.29293 16.4215 8.30397 16.5965 8.33684C16.722 8.51765 16.8763 8.6609 17.0595 8.76671C17.0595 8.78873 17.0595 8.81082 17.0595 8.83284C17.0099 9.32746 17.1641 9.73524 17.5224 10.0563C17.4511 10.1009 17.407 10.167 17.3901 10.2547C17.5936 10.717 17.7699 11.1469 17.9192 11.5443C17.9633 11.5223 18.0073 11.5002 18.0515 11.4782C18.0944 11.6062 18.1165 11.7384 18.1176 11.875C18.1067 12.1185 18.1177 12.3609 18.1507 12.6025C18.1754 12.7341 18.2305 12.8444 18.316 12.9331C18.2995 13.0986 18.2774 13.2639 18.2499 13.4291C18.3835 14.2282 18.4165 15.0329 18.3491 15.843C18.327 15.821 18.305 15.7989 18.2829 15.7769C18.266 15.9791 18.2329 16.1775 18.1837 16.3721C18.2024 16.5366 18.2024 16.7129 18.1837 16.9012C18.0847 17.441 17.9083 17.948 17.6547 18.4222C17.5635 18.4109 17.4532 18.3999 17.324 18.3892C17.3681 18.301 17.4121 18.2128 17.4563 18.1246C17.3981 18.0349 17.376 17.9357 17.3901 17.827C17.2137 17.827 17.0374 17.827 16.8611 17.827C16.8611 17.6506 16.8611 17.4743 16.8611 17.298C16.7729 17.298 16.6847 17.298 16.5965 17.298C16.5965 17.0334 16.5965 16.7689 16.5965 16.5044C16.4201 16.5044 16.2438 16.5044 16.0674 16.5044C16.0674 16.4162 16.0674 16.328 16.0674 16.2398C15.9793 16.2398 15.8911 16.2398 15.8029 16.2398C15.8029 16.0634 15.8029 15.8871 15.8029 15.7107C15.7148 15.7107 15.6265 15.7107 15.5384 15.7107C15.5384 15.5344 15.5384 15.3581 15.5384 15.1817C15.362 15.1817 15.1857 15.1817 15.0093 15.1817C15.0093 15.0053 15.0093 14.829 15.0093 14.6526C15.0975 14.6526 15.1857 14.6526 15.2738 14.6526C15.2738 14.4762 15.2738 14.2999 15.2738 14.1235C15.0975 14.1235 14.9212 14.1235 14.7448 14.1235C14.7448 14.0354 14.7448 13.9472 14.7448 13.859C14.8329 13.859 14.9212 13.859 15.0093 13.859C15.0093 13.4181 15.0093 12.9772 15.0093 12.5363C14.9212 12.5363 14.8329 12.5363 14.7448 12.5363C14.7448 12.4482 14.7448 12.36 14.7448 12.2718C14.8329 12.2718 14.9212 12.2718 15.0093 12.2718C15.0093 12.1836 15.0093 12.0954 15.0093 12.0073C14.8329 12.0073 14.6566 12.0073 14.4802 12.0073C14.4802 11.7427 14.4802 11.4782 14.4802 11.2137C14.3039 11.2137 14.1275 11.2137 13.9512 11.2137C13.9512 11.1255 13.9512 11.0373 13.9512 10.9491C13.7748 10.9491 13.5985 10.9491 13.4221 10.9491C13.4221 10.861 13.4221 10.7727 13.4221 10.6846C13.3339 10.6846 13.2457 10.6846 13.1576 10.6846C13.1576 10.5964 13.1576 10.5082 13.1576 10.4201C12.5403 10.4201 11.923 10.4201 11.3058 10.4201C11.3058 10.5964 11.3058 10.7727 11.3058 10.9491C10.9941 10.9707 10.6855 10.9487 10.38 10.883C10.5403 10.7366 10.4961 10.6704 10.2477 10.6846C10.2289 10.4679 10.2509 10.2585 10.3138 10.0563C10.2496 9.97669 10.1835 9.94362 10.1154 9.95712C10.1604 9.86717 10.2045 9.77902 10.2477 9.69258C10.3276 9.64404 10.4157 9.62202 10.5122 9.62645C10.5364 9.09599 10.5805 8.56692 10.6445 8.03924C10.5755 7.6226 10.5314 7.20377 10.5122 6.7827C10.5921 6.73416 10.6803 6.71213 10.7768 6.71657C10.7218 6.45362 10.7108 6.18908 10.7437 5.92296C10.7657 6.01112 10.7878 6.09934 10.8098 6.1875C10.915 5.98248 11.0804 5.87224 11.3058 5.85683C11.3058 5.61432 11.3058 5.37187 11.3058 5.12936C11.394 5.12936 11.4822 5.12936 11.5704 5.12936C11.5704 5.0412 11.5704 4.95298 11.5704 4.86482C11.6585 4.86482 11.7467 4.86482 11.8349 4.86482C11.8349 4.77667 11.8349 4.68844 11.8349 4.60029C11.7467 4.60029 11.6585 4.60029 11.5704 4.60029C11.5704 4.42391 11.5704 4.2476 11.5704 4.07122C11.4822 4.07122 11.394 4.07122 11.3058 4.07122C11.2653 3.68956 11.3094 3.33687 11.4381 3.01308C11.5924 2.89272 11.7578 2.78254 11.9341 2.68241C12.1215 2.77758 12.3088 2.86573 12.4962 2.94695Z" fill="white"/>
<path fill-rule="evenodd" clip-rule="evenodd" d="M12.4962 2.94695C13.0672 3.40757 13.5962 3.91461 14.0834 4.46802C14.0393 4.49004 13.9953 4.51213 13.9512 4.53415C13.4759 4.08636 13.0129 3.62343 12.5624 3.14535C12.5209 3.0847 12.4988 3.01857 12.4962 2.94695Z" fill="white"/>
<path fill-rule="evenodd" clip-rule="evenodd" d="M10.2477 4.26962C10.344 4.38482 10.4212 4.51709 10.4792 4.66642C10.5276 5.02255 10.5167 5.37524 10.4461 5.72456C10.402 5.72456 10.3579 5.72456 10.3138 5.72456C10.3138 5.61432 10.3138 5.50414 10.3138 5.39389C10.3423 5.02831 10.2982 4.67561 10.1816 4.33575C10.2257 4.33575 10.2477 4.31373 10.2477 4.26962Z" fill="white"/>
<path fill-rule="evenodd" clip-rule="evenodd" d="M10.0493 3.87282C10.0901 3.88016 10.1232 3.90218 10.1485 3.93895C10.1812 4.06943 10.1923 4.2017 10.1816 4.33575C10.2982 4.67561 10.3423 5.02831 10.3138 5.39389C10.2198 4.8965 10.1317 4.38952 10.0493 3.87282Z" fill="white"/>
<path fill-rule="evenodd" clip-rule="evenodd" d="M14.0834 4.46802C14.5781 5.017 15.0411 5.59011 15.4722 6.1875C15.3337 6.12718 15.2014 6.05 15.0754 5.95603C14.9738 5.88262 14.9298 5.78342 14.9432 5.65843C14.877 5.65843 14.8109 5.65843 14.7448 5.65843C14.5684 5.65843 14.3921 5.65843 14.2157 5.65843C14.2157 5.57027 14.2157 5.48205 14.2157 5.39389C14.3039 5.39389 14.3921 5.39389 14.4802 5.39389C14.5711 5.13948 14.4719 4.98519 14.1826 4.93096C14.1214 4.78599 14.0442 4.65372 13.9512 4.53415C13.9953 4.51213 14.0393 4.49004 14.0834 4.46802Z" fill="white"/>
<path fill-rule="evenodd" clip-rule="evenodd" d="M14.7448 5.65843C14.8109 5.65843 14.877 5.65843 14.9432 5.65843C14.9298 5.78342 14.9738 5.88262 15.0754 5.95603C15.2014 6.05 15.3337 6.12718 15.4722 6.1875C15.5864 6.30178 15.6745 6.43404 15.7368 6.5843C15.7343 6.86755 15.8666 7.04393 16.1336 7.11337C16.1739 7.17229 16.1959 7.23843 16.1997 7.31177C16.1824 7.40951 16.2044 7.49767 16.2658 7.5763C16.343 7.68073 16.4312 7.76888 16.5304 7.84084C16.7392 8.12561 16.9155 8.43419 17.0595 8.76671C16.8763 8.6609 16.722 8.51765 16.5965 8.33684C16.4215 8.30397 16.2451 8.29293 16.0674 8.30377C16.0674 8.21562 16.0674 8.1274 16.0674 8.03924C15.8911 8.01722 15.7148 7.99513 15.5384 7.97311C15.5384 7.73059 15.5384 7.48815 15.5384 7.24564C15.2652 7.24339 15.0007 7.19928 14.7448 7.11337C14.7448 6.62841 14.7448 6.14339 14.7448 5.65843Z" fill="white"/>
<path fill-rule="evenodd" clip-rule="evenodd" d="M10.3138 5.72456C10.3579 5.72456 10.402 5.72456 10.4461 5.72456C10.4461 6.03321 10.4461 6.34179 10.4461 6.65043C10.4666 6.86292 10.4446 7.06132 10.38 7.24564C10.3826 6.73727 10.3606 6.23022 10.3138 5.72456Z" fill="white"/>
<path fill-rule="evenodd" clip-rule="evenodd" d="M15.7368 6.5843C15.8924 6.74037 16.0247 6.91675 16.1336 7.11337C15.8666 7.04393 15.7343 6.86755 15.7368 6.5843Z" fill="white"/>
<path fill-rule="evenodd" clip-rule="evenodd" d="M10.4461 6.65043C10.5015 6.67305 10.5236 6.71709 10.5122 6.7827C10.5314 7.20377 10.5755 7.6226 10.6445 8.03924C10.5805 8.56692 10.5364 9.09599 10.5122 9.62645C10.4157 9.62202 10.3276 9.64404 10.2477 9.69258C10.1632 9.71123 10.097 9.75534 10.0493 9.82485C10.0493 9.75871 10.0493 9.69258 10.0493 9.62645C10.1136 9.59424 10.1798 9.56117 10.2477 9.52725C10.2069 9.37666 10.1628 9.23335 10.1154 9.09738C10.0977 8.99163 10.1198 8.90347 10.1816 8.83284C10.386 8.61983 10.4962 8.35529 10.5122 8.03924C10.4594 7.77543 10.4153 7.5109 10.38 7.24564C10.4446 7.06132 10.4666 6.86292 10.4461 6.65043Z" fill="white"/>
<path fill-rule="evenodd" clip-rule="evenodd" d="M16.1997 7.31177C16.3617 7.45257 16.472 7.62895 16.5304 7.84084C16.4312 7.76888 16.343 7.68073 16.2658 7.5763C16.2044 7.49767 16.1824 7.40951 16.1997 7.31177Z" fill="white"/>
<path fill-rule="evenodd" clip-rule="evenodd" d="M10.38 7.24564C10.4153 7.5109 10.4594 7.77543 10.5122 8.03924C10.4962 8.35529 10.386 8.61983 10.1816 8.83284C10.2481 8.29458 10.3142 7.76551 10.38 7.24564Z" fill="white"/>
<path fill-rule="evenodd" clip-rule="evenodd" d="M10.1154 9.09738C10.1628 9.23335 10.2069 9.37666 10.2477 9.52725C10.1798 9.56117 10.1136 9.59424 10.0493 9.62645C10.0347 9.44266 10.0567 9.26628 10.1154 9.09738Z" fill="white"/>
<path fill-rule="evenodd" clip-rule="evenodd" d="M10.2477 9.69258C10.2045 9.77902 10.1604 9.86717 10.1154 9.95712C10.1835 9.94362 10.2496 9.97669 10.3138 10.0563C10.2509 10.2585 10.2289 10.4679 10.2477 10.6846C10.4961 10.6704 10.5403 10.7366 10.38 10.883C10.6855 10.9487 10.9941 10.9707 11.3058 10.9491C11.3058 10.7727 11.3058 10.5964 11.3058 10.4201C11.923 10.4201 12.5403 10.4201 13.1576 10.4201C13.1576 10.5082 13.1576 10.5964 13.1576 10.6846C13.2457 10.6846 13.3339 10.6846 13.4221 10.6846C13.4221 10.7727 13.4221 10.861 13.4221 10.9491C13.5985 10.9491 13.7748 10.9491 13.9512 10.9491C13.9512 11.0373 13.9512 11.1255 13.9512 11.2137C14.1275 11.2137 14.3039 11.2137 14.4802 11.2137C14.4802 11.4782 14.4802 11.7427 14.4802 12.0073C14.6566 12.0073 14.8329 12.0073 15.0093 12.0073C15.0093 12.0954 15.0093 12.1836 15.0093 12.2718C14.9212 12.2718 14.8329 12.2718 14.7448 12.2718C14.7448 12.36 14.7448 12.4482 14.7448 12.5363C14.8329 12.5363 14.9212 12.5363 15.0093 12.5363C15.0093 12.9772 15.0093 13.4181 15.0093 13.859C14.9212 13.859 14.8329 13.859 14.7448 13.859C14.7448 13.9472 14.7448 14.0354 14.7448 14.1235C14.9212 14.1235 15.0975 14.1235 15.2738 14.1235C15.2738 14.2999 15.2738 14.4762 15.2738 14.6526C15.1857 14.6526 15.0975 14.6526 15.0093 14.6526C15.0093 14.829 15.0093 15.0053 15.0093 15.1817C15.1857 15.1817 15.362 15.1817 15.5384 15.1817C15.5384 15.3581 15.5384 15.5344 15.5384 15.7107C15.6265 15.7107 15.7148 15.7107 15.8029 15.7107C15.8029 15.8871 15.8029 16.0634 15.8029 16.2398C15.8911 16.2398 15.9793 16.2398 16.0674 16.2398C16.0674 16.328 16.0674 16.4162 16.0674 16.5044C16.2438 16.5044 16.4201 16.5044 16.5965 16.5044C16.5965 16.7689 16.5965 17.0334 16.5965 17.298C16.6847 17.298 16.7729 17.298 16.8611 17.298C16.8611 17.4743 16.8611 17.6506 16.8611 17.827C17.0374 17.827 17.2137 17.827 17.3901 17.827C17.376 17.9357 17.3981 18.0349 17.4563 18.1246C17.4121 18.2128 17.3681 18.301 17.324 18.3892C17.4532 18.3999 17.5635 18.4109 17.6547 18.4222C17.6521 18.4938 17.63 18.56 17.5885 18.6206C17.6187 18.6734 17.6629 18.6954 17.7208 18.6868C17.7691 18.7889 17.8572 18.844 17.9853 18.8521C18.1017 18.9049 18.2119 18.8938 18.316 18.819C18.1607 18.7291 18.1497 18.6188 18.2829 18.4884C18.305 18.5104 18.327 18.5325 18.3491 18.5545C18.4625 18.4083 18.6057 18.2982 18.7789 18.2238C18.8436 18.2554 18.8987 18.2994 18.9443 18.3561C19.0372 18.2443 19.1144 18.123 19.1757 17.9924C19.1052 17.9157 19.1273 17.8606 19.2419 17.827C19.4622 17.9245 19.6715 17.9025 19.8701 17.7609C19.9917 17.4495 20.113 17.1409 20.2339 16.835C20.289 16.9012 20.3441 16.9673 20.3992 17.0334C20.5305 16.7883 20.5856 16.5238 20.5645 16.2398C20.5833 16.1876 20.6163 16.1435 20.6637 16.1075C20.6635 15.6314 20.7186 15.1684 20.8291 14.7187C20.8363 14.1013 20.8143 13.484 20.7629 12.867C20.9567 12.8142 21.1551 12.7921 21.3581 12.8009C21.6768 13.0755 21.9193 13.4061 22.0856 13.7929C22.0755 13.9936 22.1637 14.1259 22.3501 14.1897C22.5597 14.4762 22.7361 14.7849 22.8792 15.1155C22.7966 15.1105 22.7415 15.0663 22.7139 14.9833C22.5991 15.3993 22.3236 15.5977 21.8872 15.5785C21.8872 15.4462 21.8872 15.3139 21.8872 15.1817C21.6448 15.1825 21.4243 15.2045 21.2259 15.2478C21.281 15.4053 21.2589 15.5596 21.1597 15.7107C21.0729 16.2106 21.0729 16.7066 21.1597 17.1988C21.0668 17.2827 20.9566 17.3157 20.8291 17.298C20.8291 17.4743 20.8291 17.6506 20.8291 17.827C20.6527 17.827 20.4764 17.827 20.3 17.827C20.3292 18.0076 20.3512 18.173 20.3661 18.323C20.083 18.3369 19.8074 18.348 19.5395 18.3561C19.4925 18.2587 19.4154 18.2146 19.308 18.2238C19.3192 18.3791 19.3413 18.5335 19.3741 18.6868C19.3521 18.7529 19.33 18.819 19.308 18.8852C19.2542 18.7353 19.2211 18.5809 19.2088 18.4222C19.163 18.4569 19.13 18.5011 19.1096 18.5545C19.1461 18.6539 19.1461 18.7641 19.1096 18.8852C18.9795 18.8694 18.8582 18.8914 18.7459 18.9513C18.7129 19.2812 18.7018 19.6119 18.7128 19.9433C18.801 19.9433 18.8892 19.9433 18.9773 19.9433C18.9773 20.1197 18.9773 20.296 18.9773 20.4724C19.1537 20.4724 19.33 20.4724 19.5064 20.4724C19.5064 20.7369 19.5064 21.0014 19.5064 21.266C19.5946 21.266 19.6828 21.266 19.7709 21.266C19.8285 21.4354 19.8285 21.6117 19.7709 21.795C20.0183 21.7355 20.1506 21.8236 20.1677 22.0596C20.2559 22.0596 20.3441 22.0596 20.4323 22.0596C20.4463 22.4006 20.3581 22.7093 20.1677 22.9855C20.0978 22.9127 20.0426 22.8245 20.0024 22.7209C19.958 22.6712 19.9029 22.6491 19.8371 22.6548C19.7336 22.5219 19.6674 22.3676 19.6387 22.1918C19.6929 21.9473 19.6047 21.793 19.3741 21.7289C19.2939 21.7452 19.2498 21.7894 19.2419 21.8612C19.2407 21.9977 19.2187 22.13 19.1757 22.258C19.0845 22.1782 19.0073 22.2002 18.9443 22.3241C18.9264 22.5134 18.8713 22.6897 18.7789 22.8532C18.6724 22.799 18.6283 22.7107 18.6467 22.5886C18.4924 22.5886 18.338 22.5886 18.1837 22.5886C18.1837 22.4123 18.1837 22.236 18.1837 22.0596C18.0956 22.0596 18.0073 22.0596 17.9192 22.0596C17.9192 22.1477 17.9192 22.236 17.9192 22.3241C17.831 22.3241 17.7428 22.3241 17.6547 22.3241C17.6547 22.236 17.6547 22.1477 17.6547 22.0596C17.5851 22.0694 17.519 22.0585 17.4563 22.0265C17.4624 21.9066 17.4845 21.7854 17.5224 21.6628C17.4981 21.552 17.4319 21.4859 17.324 21.4644C17.269 21.4096 17.291 21.3545 17.3901 21.299C17.2757 21.0525 17.1434 20.821 16.9933 20.6046C16.9386 20.4306 16.8835 20.2543 16.828 20.0756C16.7836 20.0258 16.7285 20.0037 16.6627 20.0094C16.6627 19.9653 16.6627 19.9213 16.6627 19.8772C16.6734 19.7431 16.6623 19.6108 16.6296 19.4804C16.2639 18.9125 15.9222 18.3284 15.6045 17.7278C15.6927 17.5182 15.6265 17.3749 15.4061 17.298C15.5032 17.1382 15.5473 16.9618 15.5384 16.7689C15.362 16.7689 15.1857 16.7689 15.0093 16.7689C14.8982 16.5818 14.7329 16.4495 14.5133 16.3721C14.4802 16.3059 14.4472 16.2398 14.4141 16.1737C14.4951 16.019 14.4951 15.8647 14.4141 15.7107C14.3683 15.7455 14.3353 15.7896 14.3149 15.843C14.119 15.7088 13.9757 15.5325 13.885 15.3139C13.9071 15.2258 13.9291 15.1376 13.9512 15.0494C13.9 14.7664 13.8669 14.4798 13.852 14.1897C13.8299 14.4983 13.8079 14.8069 13.7858 15.1155C13.7581 14.8582 13.703 14.6157 13.6205 14.3881C13.7074 13.9802 13.7074 13.5724 13.6205 13.1646C13.6964 12.9186 13.7405 12.6652 13.7528 12.4041C13.8551 12.3828 13.8993 12.3167 13.885 12.2057C13.6985 12.2082 13.5221 12.2523 13.356 12.3379C13.2197 12.4879 13.0654 12.6201 12.893 12.7347C12.8316 12.8134 12.8096 12.9015 12.8269 12.9993C12.6665 13.254 12.4902 13.4965 12.2978 13.7267C12.3065 13.6779 12.2954 13.6338 12.2648 13.5945C12.1782 13.7582 12.057 13.8905 11.901 13.9913C11.8424 13.9367 11.8204 13.8706 11.8349 13.7929C11.6715 13.7752 11.5612 13.8413 11.5042 13.9913C11.5589 14.2084 11.5809 14.4288 11.5704 14.6526C11.4822 14.6526 11.394 14.6526 11.3058 14.6526C11.3058 14.829 11.3058 15.0053 11.3058 15.1817C11.2177 15.1817 11.1294 15.1817 11.0413 15.1817C11.0413 15.3581 11.0413 15.5344 11.0413 15.7107C10.9531 15.7107 10.8649 15.7107 10.7768 15.7107C10.7768 16.0634 10.7768 16.4162 10.7768 16.7689C10.8649 16.7689 10.9531 16.7689 11.0413 16.7689C10.9606 17.7672 10.9606 18.7592 11.0413 19.7449C11.1074 19.7449 11.1736 19.7449 11.2397 19.7449C11.2435 19.8182 11.2655 19.8844 11.3058 19.9433C11.3124 20.1243 11.2903 20.3007 11.2397 20.4724C11.099 20.541 11.0328 20.6292 11.0413 20.7369C10.9924 20.7456 10.9483 20.7345 10.909 20.7038C10.9644 20.637 10.9864 20.5598 10.9752 20.4724C10.909 20.4724 10.8429 20.4724 10.7768 20.4724C10.731 20.123 10.731 19.7702 10.7768 19.4142C10.5862 19.4071 10.4319 19.33 10.3138 19.1828C9.82357 19.1301 9.33861 19.1411 8.85888 19.2158C8.78375 18.9612 8.60737 18.851 8.32981 18.8852C8.20012 18.7653 8.04583 18.6992 7.86687 18.6868C7.94742 18.643 8.03558 18.5989 8.13141 18.5545C7.78725 18.451 7.78725 18.3628 8.13141 18.29C8.13141 17.9593 8.13141 17.6286 8.13141 17.298C8.4841 17.298 8.83686 17.298 9.18955 17.298C9.18955 17.1216 9.18955 16.9453 9.18955 16.7689C9.36592 16.7689 9.54224 16.7689 9.71862 16.7689C9.71862 16.4162 9.71862 16.0634 9.71862 15.7107C9.89499 15.7107 10.0713 15.7107 10.2477 15.7107C10.2477 15.5344 10.2477 15.3581 10.2477 15.1817C10.3358 15.1817 10.4241 15.1817 10.5122 15.1817C10.5122 15.0053 10.5122 14.829 10.5122 14.6526C10.6004 14.6526 10.6886 14.6526 10.7768 14.6526C10.7768 14.4762 10.7768 14.2999 10.7768 14.1235C10.6886 14.1235 10.6004 14.1235 10.5122 14.1235C10.5122 13.9472 10.5122 13.7708 10.5122 13.5945C10.2477 13.5945 9.98315 13.5945 9.71862 13.5945C9.71862 13.7708 9.71862 13.9472 9.71862 14.1235C9.63046 14.1235 9.54224 14.1235 9.45408 14.1235C9.45408 14.2999 9.45408 14.4762 9.45408 14.6526C9.36592 14.6526 9.2777 14.6526 9.18955 14.6526C9.18955 14.7408 9.18955 14.829 9.18955 14.9171C9.01317 14.9171 8.83686 14.9171 8.66048 14.9171C8.66048 15.0053 8.66048 15.0935 8.66048 15.1817C8.57232 15.1817 8.4841 15.1817 8.39594 15.1817C8.39594 15.3581 8.39594 15.5344 8.39594 15.7107C8.09854 15.7475 7.82296 15.7034 7.56927 15.5785C7.54725 15.6005 7.52516 15.6226 7.50314 15.6446C7.50459 16.021 7.53766 16.3958 7.60234 16.7689C7.27094 16.7579 6.94027 16.769 6.61033 16.802C6.43825 16.8603 6.29494 16.9595 6.18046 17.0996C6.09072 17.3353 6.03563 17.5778 6.01513 17.827C5.83875 17.827 5.66244 17.827 5.48606 17.827C5.48606 17.6948 5.48606 17.5625 5.48606 17.4302C5.64326 17.316 5.79755 17.1837 5.949 17.0334C6.01043 16.9548 6.03246 16.8666 6.01513 16.7689C6.14012 16.7823 6.23932 16.7383 6.31273 16.6366C6.35969 16.734 6.4368 16.7781 6.5442 16.7689C6.50736 16.6069 6.50736 16.4526 6.5442 16.3059C6.71509 16.2469 6.89147 16.2249 7.07327 16.2398C7.06599 15.9281 7.17624 15.6745 7.40394 15.4793C7.36717 15.4539 7.34514 15.4209 7.3378 15.3801C7.74691 15.2249 8.0004 14.9383 8.09834 14.5203C8.14582 14.5832 8.20091 14.5942 8.26367 14.5534C8.42392 14.4495 8.51207 14.3063 8.52821 14.1235C8.50784 13.9632 8.52993 13.8089 8.59434 13.6606C8.79903 13.5224 8.95338 13.3461 9.05728 13.1315C9.12063 13.1016 9.17579 13.0575 9.22261 12.9993C9.42214 12.4592 9.55441 11.908 9.61941 11.3459C9.78706 11.2625 9.89731 11.1303 9.95008 10.9491C9.96715 10.5712 10.0002 10.1964 10.0493 9.82485C10.097 9.75534 10.1632 9.71123 10.2477 9.69258Z" fill="white"/>
<path fill-rule="evenodd" clip-rule="evenodd" d="M17.0595 8.83284C17.3914 9.43195 17.6339 10.0713 17.7869 10.7507C17.8172 11.0178 17.8613 11.2823 17.9192 11.5443C17.7699 11.1469 17.5936 10.717 17.3901 10.2547C17.407 10.167 17.4511 10.1009 17.5224 10.0563C17.1641 9.73524 17.0099 9.32746 17.0595 8.83284Z" fill="white"/>
<path fill-rule="evenodd" clip-rule="evenodd" d="M10.0493 9.62645C10.0493 9.69258 10.0493 9.75871 10.0493 9.82485C10.0002 10.1964 9.96715 10.5712 9.95008 10.9491C9.89731 11.1303 9.78706 11.2625 9.61941 11.3459C9.55441 11.908 9.42214 12.4592 9.22261 12.9993C9.17579 13.0575 9.12063 13.1016 9.05728 13.1315C8.96621 13.0132 8.90008 12.881 8.85888 12.7347C9.25952 11.7292 9.65632 10.6931 10.0493 9.62645Z" fill="white"/>
<path fill-rule="evenodd" clip-rule="evenodd" d="M10.7768 11.2137C10.8649 11.2137 10.9531 11.2137 11.0413 11.2137C11.0413 11.3018 11.0413 11.39 11.0413 11.4782C11.3058 11.4782 11.5704 11.4782 11.8349 11.4782C11.8349 11.6546 11.8349 11.8309 11.8349 12.0073C11.6585 12.0073 11.4822 12.0073 11.3058 12.0073C11.3058 12.1836 11.3058 12.36 11.3058 12.5363C11.1294 12.5363 10.9531 12.5363 10.7768 12.5363C10.7768 12.36 10.7768 12.1836 10.7768 12.0073C10.6886 12.0073 10.6004 12.0073 10.5122 12.0073C10.5122 11.8309 10.5122 11.6546 10.5122 11.4782C10.6004 11.4782 10.6886 11.4782 10.7768 11.4782C10.7768 11.39 10.7768 11.3018 10.7768 11.2137Z" fill="white"/>
<path fill-rule="evenodd" clip-rule="evenodd" d="M17.7869 10.7507C17.8996 10.9782 17.9878 11.2206 18.0515 11.4782C18.0073 11.5002 17.9633 11.5223 17.9192 11.5443C17.8613 11.2823 17.8172 11.0178 17.7869 10.7507Z" fill="white"/>
<path fill-rule="evenodd" clip-rule="evenodd" d="M18.1176 11.875C18.2331 12.2104 18.2992 12.5631 18.316 12.9331C18.2305 12.8444 18.1754 12.7341 18.1507 12.6025C18.1177 12.3609 18.1067 12.1185 18.1176 11.875Z" fill="white"/>
<path fill-rule="evenodd" clip-rule="evenodd" d="M5.08926 12.1395C5.10341 12.2483 5.08132 12.3475 5.02312 12.4371C5.0591 12.4845 5.10321 12.5176 5.15539 12.5363C5.13337 12.6686 5.11128 12.8009 5.08926 12.9331C4.90375 13.0583 4.70535 13.0804 4.49405 12.9993C4.46099 12.9331 4.42792 12.867 4.39485 12.8009C4.32799 12.8562 4.25082 12.8782 4.16339 12.867C4.43242 12.5761 4.74106 12.3336 5.08926 12.1395Z" fill="white"/>
<path fill-rule="evenodd" clip-rule="evenodd" d="M5.08926 12.1395C5.14144 12.1582 5.18555 12.1913 5.22153 12.2387C5.14891 12.2897 5.14891 12.3447 5.22153 12.4041C5.2329 12.4697 5.21081 12.5137 5.15539 12.5363C5.10321 12.5176 5.0591 12.4845 5.02312 12.4371C5.08132 12.3475 5.10341 12.2483 5.08926 12.1395Z" fill="white"/>
<path fill-rule="evenodd" clip-rule="evenodd" d="M20.7629 12.2718C21.001 12.3994 21.1994 12.5758 21.3581 12.8009C21.1551 12.7921 20.9567 12.8142 20.7629 12.867C20.7698 12.6957 20.7257 12.5414 20.6307 12.4041C20.647 12.3238 20.6911 12.2797 20.7629 12.2718Z" fill="white"/>
<path fill-rule="evenodd" clip-rule="evenodd" d="M13.7528 12.4041C13.6477 12.3299 13.5374 12.341 13.4221 12.4371C13.2324 12.638 13.034 12.8254 12.8269 12.9993C12.8096 12.9015 12.8316 12.8134 12.893 12.7347C13.0654 12.6201 13.2197 12.4879 13.356 12.3379C13.5221 12.2523 13.6985 12.2082 13.885 12.2057C13.8993 12.3167 13.8551 12.3828 13.7528 12.4041Z" fill="white"/>
<path fill-rule="evenodd" clip-rule="evenodd" d="M5.08926 12.9331C5.04627 13.0611 5.02425 13.1934 5.02312 13.3299C4.93497 13.3299 4.84675 13.3299 4.75859 13.3299C4.8027 13.5063 4.84675 13.6826 4.89086 13.859C4.74629 13.9465 4.64709 14.0788 4.59326 14.2558C4.57123 14.2117 4.54914 14.1676 4.52712 14.1235C4.45001 14.3221 4.33977 14.4985 4.19645 14.6526C4.16451 14.5899 4.15353 14.5238 4.16339 14.4542C4.07523 14.4542 3.98701 14.4542 3.89885 14.4542C3.89885 14.5203 3.89885 14.5865 3.89885 14.6526C3.96499 14.6526 4.03112 14.6526 4.09725 14.6526C4.11928 14.829 4.14136 15.0053 4.16339 15.1817C4.07523 15.1817 3.98701 15.1817 3.89885 15.1817C3.89885 15.2698 3.89885 15.3581 3.89885 15.4462C3.8107 15.4462 3.72247 15.4462 3.63432 15.4462C3.63432 15.5344 3.63432 15.6226 3.63432 15.7107C3.45794 15.7107 3.28163 15.7107 3.10525 15.7107C3.10525 15.7989 3.10525 15.8871 3.10525 15.9753C3.03911 15.9753 2.97298 15.9753 2.90685 15.9753C2.91902 16.1618 2.83086 16.2721 2.64231 16.3059C2.55945 16.5133 2.58147 16.7117 2.70845 16.9012C2.59893 17.1674 2.44457 17.2115 2.24551 17.0334C2.26396 16.8603 2.30807 16.6949 2.37778 16.5374C2.32804 16.493 2.30596 16.438 2.31164 16.3721C2.42063 16.2876 2.54192 16.2215 2.67538 16.1737C2.65336 16.0414 2.63127 15.9091 2.60925 15.7769C2.6765 15.6528 2.73166 15.5205 2.77458 15.3801C3.0983 15.1987 3.23057 14.9341 3.17138 14.5865C3.29036 14.4264 3.4006 14.2721 3.50205 14.1235C3.59021 14.1235 3.67843 14.1235 3.76658 14.1235C3.79006 13.9655 3.83417 13.8112 3.89885 13.6606C3.68894 13.4602 3.73305 13.339 4.03112 13.2969C4.07682 13.2263 4.10988 13.1491 4.13032 13.0654C4.15234 13.0874 4.17443 13.1095 4.19645 13.1315C4.23514 13.0325 4.20207 12.9663 4.09725 12.9331C4.09725 12.889 4.11928 12.867 4.16339 12.867C4.25082 12.8782 4.32799 12.8562 4.39485 12.8009C4.42792 12.867 4.46099 12.9331 4.49405 12.9993C4.70535 13.0804 4.90375 13.0583 5.08926 12.9331Z" fill="white"/>
<path fill-rule="evenodd" clip-rule="evenodd" d="M8.85888 12.7347C8.90008 12.881 8.96621 13.0132 9.05728 13.1315C8.95338 13.3461 8.79903 13.5224 8.59434 13.6606C8.52993 13.8089 8.50784 13.9632 8.52821 14.1235C8.35765 14.096 8.21434 14.1401 8.09834 14.2558C8.07301 14.219 8.03994 14.197 7.99914 14.1897C7.98287 14.0323 8.06005 13.9 8.23061 13.7929C8.34442 13.499 8.47669 13.2125 8.62741 12.9331C8.69612 12.8531 8.7733 12.787 8.85888 12.7347Z" fill="white"/>
<path fill-rule="evenodd" clip-rule="evenodd" d="M5.22153 12.4041C5.2737 12.4228 5.31782 12.4558 5.35379 12.5033C5.13859 13.2215 4.94019 13.938 4.75859 14.6526C4.68393 14.5119 4.67288 14.3576 4.72552 14.1897C4.82062 14.0971 4.87571 13.9868 4.89086 13.859C4.84675 13.6826 4.8027 13.5063 4.75859 13.3299C4.84675 13.3299 4.93497 13.3299 5.02312 13.3299C5.02425 13.1934 5.04627 13.0611 5.08926 12.9331C5.11128 12.8009 5.13337 12.6686 5.15539 12.5363C5.21081 12.5137 5.2329 12.4697 5.22153 12.4041Z" fill="white"/>
<path fill-rule="evenodd" clip-rule="evenodd" d="M4.09725 12.9331C4.20207 12.9663 4.23514 13.0325 4.19645 13.1315C4.17443 13.1095 4.15234 13.0874 4.13032 13.0654C4.10988 13.1491 4.07682 13.2263 4.03112 13.2969C3.73305 13.339 3.68894 13.4602 3.89885 13.6606C3.83417 13.8112 3.79006 13.9655 3.76658 14.1235C3.67843 14.1235 3.59021 14.1235 3.50205 14.1235C3.5535 14.0802 3.59755 14.0251 3.63432 13.9582C3.60753 13.8098 3.58551 13.6665 3.56818 13.5283C3.69926 13.2872 3.87564 13.0888 4.09725 12.9331Z" fill="white"/>
<path fill-rule="evenodd" clip-rule="evenodd" d="M7.86687 18.6868C7.86687 18.7088 7.86687 18.7309 7.86687 18.7529C7.82137 19.3203 7.75524 19.8935 7.66847 20.4724C7.55823 20.4724 7.44805 20.4724 7.3378 20.4724C7.31578 20.296 7.29369 20.1197 7.27167 19.9433C7.02916 19.9433 6.78671 19.9433 6.5442 19.9433C6.5442 20.296 6.5442 20.6487 6.5442 21.0014C6.36782 21.0014 6.19151 21.0014 6.01513 21.0014C6.01513 21.5305 6.01513 22.0596 6.01513 22.5886C6.19151 22.5886 6.36782 22.5886 6.5442 22.5886C6.55075 22.7697 6.52866 22.946 6.47807 23.1177C6.20936 23.5887 5.95587 24.0737 5.71753 24.5727C5.55517 24.9578 5.43395 25.3546 5.35379 25.7631C5.31299 25.7557 5.27992 25.7337 5.25459 25.6969C5.22172 25.8719 5.21068 26.0483 5.22153 26.226C5.16849 26.13 5.13542 26.0198 5.12232 25.8953C5.10447 26.1515 5.0714 26.405 5.02312 26.6559C5.0843 26.9619 5.10632 27.2595 5.08926 27.5487C5.05355 27.6312 5.00943 27.7084 4.95699 27.7801C5.12418 27.8244 5.12418 27.8795 4.95699 27.9455C4.90931 28.09 4.86526 28.2334 4.82472 28.3753C5.25962 28.9309 5.12735 29.2064 4.42792 29.202C4.42792 29.1139 4.42792 29.0256 4.42792 28.9375C4.25154 28.9375 4.07523 28.9375 3.89885 28.9375C3.89885 28.8493 3.89885 28.7611 3.89885 28.6729C3.76658 28.6729 3.63432 28.6729 3.50205 28.6729C3.50205 28.5848 3.50205 28.4966 3.50205 28.4084C3.62565 28.2672 3.66976 28.0908 3.63432 27.8793C3.72247 27.8793 3.8107 27.8793 3.89885 27.8793C3.89885 27.5267 3.89885 27.1739 3.89885 26.8212C3.72247 26.8212 3.54616 26.8212 3.36978 26.8212C3.36978 26.9976 3.36978 27.1739 3.36978 27.3503C3.1934 27.3503 3.01709 27.3503 2.84071 27.3503C2.84071 26.9976 2.84071 26.6448 2.84071 26.2921C2.92887 26.2921 3.01709 26.2921 3.10525 26.2921C3.10525 25.8512 3.10525 25.4104 3.10525 24.9695C3.01709 24.9695 2.92887 24.9695 2.84071 24.9695C2.84071 24.4404 2.84071 23.9113 2.84071 23.3823C2.75256 23.3823 2.66433 23.3823 2.57618 23.3823C2.57618 23.4704 2.57618 23.5586 2.57618 23.6468C2.48802 23.6468 2.3998 23.6468 2.31164 23.6468C2.31164 23.8232 2.31164 23.9995 2.31164 24.1759C2.22349 24.1759 2.13526 24.1759 2.04711 24.1759C2.04711 24.0877 2.04711 23.9995 2.04711 23.9113C1.95895 23.9113 1.87073 23.9113 1.78257 23.9113C1.31964 24.0216 1.14326 23.8452 1.2535 23.3823C1.2535 23.2941 1.2535 23.2059 1.2535 23.1177C1.95895 23.1177 2.66433 23.1177 3.36978 23.1177C3.35854 23.0303 3.38056 22.9531 3.43592 22.8862C3.67744 22.8532 3.91988 22.8423 4.16339 22.8532C4.16339 21.9714 4.16339 21.0896 4.16339 20.2078C4.42792 20.2078 4.69246 20.2078 4.95699 20.2078C4.95699 20.1197 4.95699 20.0315 4.95699 19.9433C4.6043 19.9433 4.25154 19.9433 3.89885 19.9433C3.72247 19.9433 3.54616 19.9433 3.36978 19.9433C3.36978 19.7669 3.36978 19.5906 3.36978 19.4142C3.54616 19.4142 3.72247 19.4142 3.89885 19.4142C3.89885 19.2379 3.89885 19.0615 3.89885 18.8852C4.07523 18.8852 4.25154 18.8852 4.42792 18.8852C4.42792 19.0615 4.42792 19.2379 4.42792 19.4142C4.78061 19.4142 5.13337 19.4142 5.48606 19.4142C5.48606 19.2379 5.48606 19.0615 5.48606 18.8852C5.66244 18.8852 5.83875 18.8852 6.01513 18.8852C6.01513 18.5765 6.01513 18.2679 6.01513 17.9593C5.80363 17.9947 5.62726 17.9506 5.48606 17.827C5.66244 17.827 5.83875 17.827 6.01513 17.827C6.03563 17.5778 6.09072 17.3353 6.18046 17.0996C6.29494 16.9595 6.43825 16.8603 6.61033 16.802C6.94027 16.769 7.27094 16.7579 7.60234 16.7689C7.53766 16.3958 7.50459 16.021 7.50314 15.6446C7.52516 15.6226 7.54725 15.6005 7.56927 15.5785C7.82296 15.7034 8.09854 15.7475 8.39594 15.7107C8.39594 15.5344 8.39594 15.3581 8.39594 15.1817C8.4841 15.1817 8.57232 15.1817 8.66048 15.1817C8.66048 15.0935 8.66048 15.0053 8.66048 14.9171C8.83686 14.9171 9.01317 14.9171 9.18955 14.9171C9.18955 14.829 9.18955 14.7408 9.18955 14.6526C9.2777 14.6526 9.36592 14.6526 9.45408 14.6526C9.45408 14.4762 9.45408 14.2999 9.45408 14.1235C9.54224 14.1235 9.63046 14.1235 9.71862 14.1235C9.71862 13.9472 9.71862 13.7708 9.71862 13.5945C9.98315 13.5945 10.2477 13.5945 10.5122 13.5945C10.5122 13.7708 10.5122 13.9472 10.5122 14.1235C10.6004 14.1235 10.6886 14.1235 10.7768 14.1235C10.7768 14.2999 10.7768 14.4762 10.7768 14.6526C10.6886 14.6526 10.6004 14.6526 10.5122 14.6526C10.5122 14.829 10.5122 15.0053 10.5122 15.1817C10.4241 15.1817 10.3358 15.1817 10.2477 15.1817C10.2477 15.3581 10.2477 15.5344 10.2477 15.7107C10.0713 15.7107 9.89499 15.7107 9.71862 15.7107C9.71862 16.0634 9.71862 16.4162 9.71862 16.7689C9.54224 16.7689 9.36592 16.7689 9.18955 16.7689C9.18955 16.9453 9.18955 17.1216 9.18955 17.298C8.83686 17.298 8.4841 17.298 8.13141 17.298C8.13141 17.6286 8.13141 17.9593 8.13141 18.29C7.78725 18.3628 7.78725 18.451 8.13141 18.5545C8.03558 18.5989 7.94742 18.643 7.86687 18.6868Z" fill="white"/>
<path fill-rule="evenodd" clip-rule="evenodd" d="M13.7528 12.4041C13.7405 12.6652 13.6964 12.9186 13.6205 13.1646C13.7074 13.5724 13.7074 13.9802 13.6205 14.3881C13.6407 14.5808 13.6407 14.7572 13.6205 14.9171C13.4902 14.3313 13.4572 13.7361 13.5213 13.1315C13.5692 12.8718 13.6464 12.6293 13.7528 12.4041Z" fill="white"/>
<path fill-rule="evenodd" clip-rule="evenodd" d="M22.0856 13.7929C22.2064 13.9018 22.2946 14.0341 22.3501 14.1897C22.1637 14.1259 22.0755 13.9936 22.0856 13.7929Z" fill="white"/>
<path fill-rule="evenodd" clip-rule="evenodd" d="M4.89086 13.859C4.87571 13.9868 4.82062 14.0971 4.72552 14.1897C4.67288 14.3576 4.68393 14.5119 4.75859 14.6526C4.75859 14.6746 4.75859 14.6967 4.75859 14.7187C4.71719 14.8593 4.62903 14.9696 4.49405 15.0494C4.52143 15.3975 4.52143 15.7502 4.49405 16.1075C4.43824 16.3456 4.41622 16.5881 4.42792 16.835C4.44875 17.091 4.42673 17.3335 4.36179 17.5625C4.34201 17.0737 4.3641 16.5887 4.42792 16.1075C4.37369 16.001 4.28547 15.9569 4.16339 15.9753C4.16187 16.1358 4.1288 16.2901 4.06419 16.4382C3.97451 16.4964 3.87531 16.5185 3.76658 16.5044C3.76136 16.6476 3.71725 16.7799 3.63432 16.9012C3.71725 17.0224 3.76136 17.1547 3.76658 17.298C3.84429 17.2835 3.91043 17.3055 3.96499 17.3641C3.92352 17.4247 3.90143 17.4909 3.89885 17.5625C3.89885 17.6506 3.89885 17.7389 3.89885 17.827C3.72247 17.827 3.54616 17.827 3.36978 17.827C2.97298 17.827 2.57618 17.827 2.17938 17.827C2.19525 17.6234 2.17323 17.425 2.11324 17.2318C2.15907 17.1645 2.20312 17.0984 2.24551 17.0334C2.44457 17.2115 2.59893 17.1674 2.70845 16.9012C2.58147 16.7117 2.55945 16.5133 2.64231 16.3059C2.83086 16.2721 2.91902 16.1618 2.90685 15.9753C2.97298 15.9753 3.03911 15.9753 3.10525 15.9753C3.10525 15.8871 3.10525 15.7989 3.10525 15.7107C3.28163 15.7107 3.45794 15.7107 3.63432 15.7107C3.63432 15.6226 3.63432 15.5344 3.63432 15.4462C3.72247 15.4462 3.8107 15.4462 3.89885 15.4462C3.89885 15.3581 3.89885 15.2698 3.89885 15.1817C3.98701 15.1817 4.07523 15.1817 4.16339 15.1817C4.14136 15.0053 4.11928 14.829 4.09725 14.6526C4.03112 14.6526 3.96499 14.6526 3.89885 14.6526C3.89885 14.5865 3.89885 14.5203 3.89885 14.4542C3.98701 14.4542 4.07523 14.4542 4.16339 14.4542C4.15353 14.5238 4.16451 14.5899 4.19645 14.6526C4.33977 14.4985 4.45001 14.3221 4.52712 14.1235C4.54914 14.1676 4.57123 14.2117 4.59326 14.2558C4.64709 14.0788 4.74629 13.9465 4.89086 13.859Z" fill="white"/>
<path fill-rule="evenodd" clip-rule="evenodd" d="M8.52821 14.1235C8.51207 14.3063 8.42392 14.4495 8.26367 14.5534C8.20091 14.5942 8.14582 14.5832 8.09834 14.5203C8.0004 14.9383 7.74691 15.2249 7.3378 15.3801C7.23748 15.3808 7.1603 15.4248 7.10634 15.5123C7.07241 15.4444 7.03934 15.3783 7.00713 15.3139C7.18669 15.1551 7.35202 14.9788 7.50314 14.7849C7.5825 14.5094 7.74783 14.311 7.99914 14.1897C8.03994 14.197 8.07301 14.219 8.09834 14.2558C8.21434 14.1401 8.35765 14.096 8.52821 14.1235Z" fill="white"/>
<path fill-rule="evenodd" clip-rule="evenodd" d="M18.316 12.9331C18.6032 14.2665 18.5591 15.5891 18.1837 16.9012C18.2024 16.7129 18.2024 16.5366 18.1837 16.3721C18.2329 16.1775 18.266 15.9791 18.2829 15.7769C18.305 15.7989 18.327 15.821 18.3491 15.843C18.4165 15.0329 18.3835 14.2282 18.2499 13.4291C18.2774 13.2639 18.2995 13.0986 18.316 12.9331Z" fill="white"/>
<path fill-rule="evenodd" clip-rule="evenodd" d="M3.56818 13.5283C3.58551 13.6665 3.60753 13.8098 3.63432 13.9582C3.59755 14.0251 3.5535 14.0802 3.50205 14.1235C3.4006 14.2721 3.29036 14.4264 3.17138 14.5865C3.23057 14.9341 3.0983 15.1987 2.77458 15.3801C2.73166 15.5205 2.6765 15.6528 2.60925 15.7769C2.63127 15.9091 2.65336 16.0414 2.67538 16.1737C2.54192 16.2215 2.42063 16.2876 2.31164 16.3721C2.33168 16.1679 2.24353 16.0577 2.04711 16.0414C2.32434 15.5996 2.55581 15.1366 2.74151 14.6526C3.12535 14.3128 3.40093 13.9381 3.56818 13.5283Z" fill="white"/>
<path fill-rule="evenodd" clip-rule="evenodd" d="M12.2978 13.7267C12.2432 13.9241 12.155 14.1005 12.0333 14.2558C12.0431 14.1862 12.0322 14.1201 12.0002 14.0574C11.8321 14.268 11.7329 14.5106 11.7026 14.7849C11.6492 14.8052 11.6051 14.8383 11.5704 14.8841C11.5684 14.9786 11.5904 15.0778 11.6365 15.1817C11.5854 15.443 11.5634 15.7076 11.5704 15.9753C11.4632 16.4668 11.397 16.9738 11.372 17.4964C11.387 17.6092 11.4091 17.7195 11.4381 17.827C11.4381 18.0034 11.4381 18.1797 11.4381 18.3561C11.3903 18.3284 11.3573 18.2844 11.3389 18.2238C11.3044 18.7311 11.2713 19.2381 11.2397 19.7449C11.1736 19.7449 11.1074 19.7449 11.0413 19.7449C10.9606 18.7592 10.9606 17.7672 11.0413 16.7689C10.9531 16.7689 10.8649 16.7689 10.7768 16.7689C10.7768 16.4162 10.7768 16.0634 10.7768 15.7107C10.8649 15.7107 10.9531 15.7107 11.0413 15.7107C11.0413 15.5344 11.0413 15.3581 11.0413 15.1817C11.1294 15.1817 11.2177 15.1817 11.3058 15.1817C11.3058 15.0053 11.3058 14.829 11.3058 14.6526C11.394 14.6526 11.4822 14.6526 11.5704 14.6526C11.5809 14.4288 11.5589 14.2084 11.5042 13.9913C11.5612 13.8413 11.6715 13.7752 11.8349 13.7929C11.8204 13.8706 11.8424 13.9367 11.901 13.9913C12.057 13.8905 12.1782 13.7582 12.2648 13.5945C12.2954 13.6338 12.3065 13.6779 12.2978 13.7267Z" fill="white"/>
<path fill-rule="evenodd" clip-rule="evenodd" d="M12.0333 14.2558C11.9451 14.5644 11.857 14.873 11.7688 15.1817C11.7246 15.1817 11.6806 15.1817 11.6365 15.1817C11.5904 15.0778 11.5684 14.9786 11.5704 14.8841C11.6051 14.8383 11.6492 14.8052 11.7026 14.7849C11.7329 14.5106 11.8321 14.268 12.0002 14.0574C12.0322 14.1201 12.0431 14.1862 12.0333 14.2558Z" fill="white"/>
<path fill-rule="evenodd" clip-rule="evenodd" d="M22.8792 15.1155C22.9569 15.1826 23.0009 15.2708 23.0115 15.3801C22.9811 15.5571 22.97 15.7334 22.9784 15.9091C23.0543 15.8458 23.1204 15.8678 23.1768 15.9753C23.2469 16.1964 23.3681 16.3727 23.5406 16.5044C23.6901 16.8208 23.8003 17.1515 23.8712 17.4964C23.9066 17.782 23.9397 18.0685 23.9704 18.3561C24.0555 18.5491 24.1547 18.7255 24.268 18.8852C24.268 18.9293 24.268 18.9733 24.268 19.0174C24.2744 19.7546 24.3186 20.504 24.4003 21.266C24.366 21.8842 24.3219 22.5015 24.268 23.1177C24.2762 23.212 24.2982 23.3001 24.3342 23.3823C24.3342 23.6688 24.3342 23.9554 24.3342 24.242C24.3121 24.242 24.29 24.242 24.268 24.242C24.2767 24.1841 24.2547 24.1399 24.2019 24.1097C24.1578 24.1979 24.1137 24.2861 24.0696 24.3743C24.011 24.3197 23.989 24.2536 24.0035 24.1759C23.6508 24.1759 23.298 24.1759 22.9454 24.1759C22.9454 24.5285 22.9454 24.8813 22.9454 25.234C23.298 25.234 23.6508 25.234 24.0035 25.234C23.9927 25.0781 24.0037 24.9238 24.0366 24.7711C24.0834 24.7128 24.1385 24.6688 24.2019 24.6388C24.0966 24.868 24.0526 25.1105 24.0696 25.3663C23.8655 25.8059 23.7112 26.2688 23.6067 26.7551C23.433 27.2788 23.1905 27.7637 22.8792 28.21C22.7804 28.1506 22.6812 28.1726 22.5816 28.2761C22.5612 28.2227 22.5282 28.1786 22.4824 28.1439C22.432 28.2185 22.3879 28.2957 22.3501 28.3753C22.1974 28.4082 22.0431 28.4192 21.8872 28.4084C21.8603 28.6585 21.9485 28.8569 22.1517 29.0036C21.9812 29.3176 21.7718 29.6042 21.5235 29.8634C21.5319 29.7347 21.521 29.6135 21.4904 29.4996C21.271 29.4667 21.0506 29.4556 20.8291 29.4666C20.7963 28.6676 20.8404 27.874 20.9613 27.0857C20.852 26.6515 20.8078 26.2106 20.8291 25.7631C21.0055 25.7631 21.1818 25.7631 21.3581 25.7631C21.3581 25.4104 21.3581 25.0576 21.3581 24.7049C21.1765 24.7256 21.0001 24.7036 20.8291 24.6388C21.1726 24.5358 21.1726 24.4696 20.8291 24.4404C20.8291 24.264 20.8291 24.0877 20.8291 23.9113C20.6748 23.9113 20.5204 23.9113 20.3661 23.9113C20.3817 23.5838 20.3156 23.2752 20.1677 22.9855C20.3581 22.7093 20.4463 22.4006 20.4323 22.0596C20.3441 22.0596 20.2559 22.0596 20.1677 22.0596C20.1506 21.8236 20.0183 21.7355 19.7709 21.795C19.8285 21.6117 19.8285 21.4354 19.7709 21.266C19.6828 21.266 19.5946 21.266 19.5064 21.266C19.5064 21.0014 19.5064 20.7369 19.5064 20.4724C19.33 20.4724 19.1537 20.4724 18.9773 20.4724C18.9773 20.296 18.9773 20.1197 18.9773 19.9433C18.8892 19.9433 18.801 19.9433 18.7128 19.9433C18.7018 19.6119 18.7129 19.2812 18.7459 18.9513C18.8582 18.8914 18.9795 18.8694 19.1096 18.8852C19.1461 18.7641 19.1461 18.6539 19.1096 18.5545C19.13 18.5011 19.163 18.4569 19.2088 18.4222C19.2211 18.5809 19.2542 18.7353 19.308 18.8852C19.33 18.819 19.3521 18.7529 19.3741 18.6868C19.3413 18.5335 19.3192 18.3791 19.308 18.2238C19.4154 18.2146 19.4925 18.2587 19.5395 18.3561C19.8074 18.348 20.083 18.3369 20.3661 18.323C20.3512 18.173 20.3292 18.0076 20.3 17.827C20.4764 17.827 20.6527 17.827 20.8291 17.827C20.8291 17.6506 20.8291 17.4743 20.8291 17.298C20.9566 17.3157 21.0668 17.2827 21.1597 17.1988C21.0729 16.7066 21.0729 16.2106 21.1597 15.7107C21.2589 15.5596 21.281 15.4053 21.2259 15.2478C21.4243 15.2045 21.6448 15.1825 21.8872 15.1817C21.8872 15.3139 21.8872 15.4462 21.8872 15.5785C22.3236 15.5977 22.5991 15.3993 22.7139 14.9833C22.7415 15.0663 22.7966 15.1105 22.8792 15.1155Z" fill="white"/>
<path fill-rule="evenodd" clip-rule="evenodd" d="M4.75859 14.7187C4.69861 15.1826 4.63247 15.6455 4.56019 16.1075C4.53817 16.1075 4.51608 16.1075 4.49405 16.1075C4.52143 15.7502 4.52143 15.3975 4.49405 15.0494C4.62903 14.9696 4.71719 14.8593 4.75859 14.7187Z" fill="white"/>
<path fill-rule="evenodd" clip-rule="evenodd" d="M11.6365 15.1817C11.6806 15.1817 11.7246 15.1817 11.7688 15.1817C11.7021 15.4524 11.636 15.7169 11.5704 15.9753C11.5634 15.7076 11.5854 15.443 11.6365 15.1817Z" fill="white"/>
<path fill-rule="evenodd" clip-rule="evenodd" d="M15.0093 16.7689C14.9794 16.8322 14.9353 16.8874 14.877 16.9342C14.9486 17.0222 14.9927 17.1214 15.0093 17.2318C14.8513 17.1398 14.741 17.0076 14.6786 16.835C14.7506 16.6188 14.6624 16.5085 14.4141 16.5044C14.08 16.0124 13.8155 15.4834 13.6205 14.9171C13.6407 14.7572 13.6407 14.5808 13.6205 14.3881C13.703 14.6157 13.7581 14.8582 13.7858 15.1155C13.8079 14.8069 13.8299 14.4983 13.852 14.1897C13.8669 14.4798 13.9 14.7664 13.9512 15.0494C13.9291 15.1376 13.9071 15.2258 13.885 15.3139C13.9757 15.5325 14.119 15.7088 14.3149 15.843C14.3353 15.7896 14.3683 15.7455 14.4141 15.7107C14.4951 15.8647 14.4951 16.019 14.4141 16.1737C14.4472 16.2398 14.4802 16.3059 14.5133 16.3721C14.7329 16.4495 14.8982 16.5818 15.0093 16.7689Z" fill="white"/>
<path fill-rule="evenodd" clip-rule="evenodd" d="M20.7629 12.2718C20.6911 12.2797 20.647 12.3238 20.6307 12.4041C20.7257 12.5414 20.7698 12.6957 20.7629 12.867C20.8143 13.484 20.8363 14.1013 20.8291 14.7187C20.7186 15.1684 20.6635 15.6314 20.6637 16.1075C20.6163 16.1435 20.5833 16.1876 20.5645 16.2398C20.4681 16.2354 20.3799 16.2574 20.3 16.3059C20.278 16.3059 20.2559 16.3059 20.2339 16.3059C20.3699 15.7322 20.5132 15.1591 20.6637 14.5865C20.7119 13.7939 20.6568 13.0113 20.4984 12.2387C20.6058 12.1052 20.694 12.1162 20.7629 12.2718Z" fill="white"/>
<path fill-rule="evenodd" clip-rule="evenodd" d="M4.36179 17.5625C4.24744 17.6033 4.14824 17.6694 4.06419 17.7609C4.03925 17.6655 3.98416 17.5994 3.89885 17.5625C3.90143 17.4909 3.92352 17.4247 3.96499 17.3641C3.91043 17.3055 3.84429 17.2835 3.76658 17.298C3.76136 17.1547 3.71725 17.0224 3.63432 16.9012C3.71725 16.7799 3.76136 16.6476 3.76658 16.5044C3.87531 16.5185 3.97451 16.4964 4.06419 16.4382C4.1288 16.2901 4.16187 16.1358 4.16339 15.9753C4.28547 15.9569 4.37369 16.001 4.42792 16.1075C4.3641 16.5887 4.34201 17.0737 4.36179 17.5625Z" fill="white"/>
<path fill-rule="evenodd" clip-rule="evenodd" d="M23.0115 15.3801C23.2124 15.7387 23.3887 16.1135 23.5406 16.5044C23.3681 16.3727 23.2469 16.1964 23.1768 15.9753C23.1204 15.8678 23.0543 15.8458 22.9784 15.9091C22.97 15.7334 22.9811 15.5571 23.0115 15.3801Z" fill="white"/>
<path fill-rule="evenodd" clip-rule="evenodd" d="M4.49405 16.1075C4.51608 16.1075 4.53817 16.1075 4.56019 16.1075C4.55053 16.3646 4.50642 16.6071 4.42792 16.835C4.41622 16.5881 4.43824 16.3456 4.49405 16.1075Z" fill="white"/>
<path fill-rule="evenodd" clip-rule="evenodd" d="M7.00713 15.3139C7.03934 15.3783 7.07241 15.4444 7.10634 15.5123C7.1603 15.4248 7.23748 15.3808 7.3378 15.3801C7.34514 15.4209 7.36717 15.4539 7.40394 15.4793C7.17624 15.6745 7.06599 15.9281 7.07327 16.2398C6.89147 16.2249 6.71509 16.2469 6.5442 16.3059C6.50736 16.4526 6.50736 16.6069 6.5442 16.7689C6.4368 16.7781 6.35969 16.734 6.31273 16.6366C6.23932 16.7383 6.14012 16.7823 6.01513 16.7689C6.03246 16.8666 6.01043 16.9548 5.949 17.0334C5.79755 17.1837 5.64326 17.316 5.48606 17.4302C5.33038 17.4526 5.17609 17.4856 5.02312 17.5294C4.9564 17.6731 4.84615 17.7502 4.69246 17.7609C5.49003 16.9635 6.26161 16.1478 7.00713 15.3139Z" fill="white"/>
<path fill-rule="evenodd" clip-rule="evenodd" d="M14.6786 16.835C14.7506 16.6188 14.6624 16.5085 14.4141 16.5044C14.5043 16.6162 14.5925 16.7264 14.6786 16.835Z" fill="white"/>
<path fill-rule="evenodd" clip-rule="evenodd" d="M2.04711 16.0414C2.24353 16.0577 2.33168 16.1679 2.31164 16.3721C2.24577 16.3664 2.19068 16.3885 2.14631 16.4382C2.12733 16.7818 1.97297 17.0464 1.68337 17.2318C1.5931 17.4449 1.51592 17.6654 1.45191 17.8932C1.67154 18.1873 1.6054 18.3415 1.2535 18.3561C1.26442 18.5996 1.25344 18.842 1.22044 19.0836C1.15358 19.1389 1.0764 19.1609 0.98897 19.1497C0.98897 19.2379 0.98897 19.3261 0.98897 19.4142C0.935269 19.8684 0.825025 20.3094 0.658302 20.7369C0.817155 19.0847 1.28009 17.5195 2.04711 16.0414Z" fill="white"/>
<path fill-rule="evenodd" clip-rule="evenodd" d="M15.0093 16.7689C15.1857 16.7689 15.362 16.7689 15.5384 16.7689C15.5473 16.9618 15.5032 17.1382 15.4061 17.298C15.416 17.3675 15.405 17.4337 15.373 17.4964C15.2984 17.3878 15.1992 17.3217 15.0754 17.298C15.0313 17.298 15.0093 17.2759 15.0093 17.2318C14.9927 17.1214 14.9486 17.0222 14.877 16.9342C14.9353 16.8874 14.9794 16.8322 15.0093 16.7689Z" fill="white"/>
<path fill-rule="evenodd" clip-rule="evenodd" d="M20.5645 16.2398C20.5856 16.5238 20.5305 16.7883 20.3992 17.0334C20.3441 16.9673 20.289 16.9012 20.2339 16.835C20.113 17.1409 19.9917 17.4495 19.8701 17.7609C19.6715 17.9025 19.4622 17.9245 19.2419 17.827C19.2419 17.7609 19.2419 17.6948 19.2419 17.6286C19.33 17.5625 19.4182 17.4964 19.5064 17.4302C19.4965 17.6568 19.5736 17.6788 19.7379 17.4964C19.8105 17.2925 19.8656 17.0831 19.9032 16.8681C20.0022 16.7582 20.1124 16.659 20.2339 16.5705C20.2832 16.4887 20.3052 16.4005 20.3 16.3059C20.3799 16.2574 20.4681 16.2354 20.5645 16.2398Z" fill="white"/>
<path fill-rule="evenodd" clip-rule="evenodd" d="M2.31164 16.3721C2.30596 16.438 2.32804 16.493 2.37778 16.5374C2.30807 16.6949 2.26396 16.8603 2.24551 17.0334C2.20312 17.0984 2.15907 17.1645 2.11324 17.2318C2.17323 17.425 2.19525 17.6234 2.17938 17.827C2.09208 17.9224 1.9819 17.9664 1.84871 17.9593C1.84871 18.0916 1.84871 18.2238 1.84871 18.3561C1.91484 18.3561 1.98098 18.3561 2.04711 18.3561C2.04711 18.5325 2.04711 18.7088 2.04711 18.8852C1.87073 18.8852 1.69442 18.8852 1.51804 18.8852C1.52842 18.7944 1.51738 18.7061 1.48497 18.6206C1.40455 18.7834 1.36051 18.9598 1.35271 19.1497C1.25946 19.2348 1.16026 19.312 1.0551 19.3812C1.16317 19.4138 1.27341 19.4248 1.38577 19.4142C1.38352 19.6874 1.33941 19.9519 1.2535 20.2078C1.18737 20.2078 1.12124 20.2078 1.0551 20.2078C1.04181 19.9944 1.0639 19.7849 1.12124 19.5796C1.08447 19.5127 1.04042 19.4576 0.98897 19.4142C0.98897 19.3261 0.98897 19.2379 0.98897 19.1497C1.0764 19.1609 1.15358 19.1389 1.22044 19.0836C1.25344 18.842 1.26442 18.5996 1.2535 18.3561C1.6054 18.3415 1.67154 18.1873 1.45191 17.8932C1.51592 17.6654 1.5931 17.4449 1.68337 17.2318C1.97297 17.0464 2.12733 16.7818 2.14631 16.4382C2.19068 16.3885 2.24577 16.3664 2.31164 16.3721Z" fill="white"/>
<path fill-rule="evenodd" clip-rule="evenodd" d="M20.2339 16.3059C20.2559 16.3059 20.278 16.3059 20.3 16.3059C20.3052 16.4005 20.2832 16.4887 20.2339 16.5705C20.1124 16.659 20.0022 16.7582 19.9032 16.8681C19.8656 17.0831 19.8105 17.2925 19.7379 17.4964C19.5736 17.6788 19.4965 17.6568 19.5064 17.4302C19.6748 17.2461 19.774 17.0257 19.804 16.7689C19.9773 16.6431 20.1206 16.4888 20.2339 16.3059Z" fill="white"/>
<path fill-rule="evenodd" clip-rule="evenodd" d="M5.48606 17.4302C5.48606 17.5625 5.48606 17.6948 5.48606 17.827C5.34916 17.8304 5.22794 17.7864 5.12232 17.6948C4.99826 17.7688 4.94317 17.879 4.95699 18.0254C4.79635 18 4.642 17.9559 4.49405 17.8932C4.52534 17.8002 4.59147 17.7561 4.69246 17.7609C4.84615 17.7502 4.9564 17.6731 5.02312 17.5294C5.17609 17.4856 5.33038 17.4526 5.48606 17.4302Z" fill="white"/>
<path fill-rule="evenodd" clip-rule="evenodd" d="M11.5704 15.9753C11.5806 16.6063 11.5365 17.2235 11.4381 17.827C11.4091 17.7195 11.387 17.6092 11.372 17.4964C11.397 16.9738 11.4632 16.4668 11.5704 15.9753Z" fill="white"/>
<path fill-rule="evenodd" clip-rule="evenodd" d="M3.89885 17.5625C3.98416 17.5994 4.03925 17.6655 4.06419 17.7609C4.14824 17.6694 4.24744 17.6033 4.36179 17.5625C4.33381 17.7133 4.37792 17.8236 4.49405 17.8932C4.642 17.9559 4.79635 18 4.95699 18.0254C4.94317 17.879 4.99826 17.7688 5.12232 17.6948C5.22794 17.7864 5.34916 17.8304 5.48606 17.827C5.62726 17.9506 5.80363 17.9947 6.01513 17.9593C6.01513 18.2679 6.01513 18.5765 6.01513 18.8852C5.83875 18.8852 5.66244 18.8852 5.48606 18.8852C5.48606 19.0615 5.48606 19.2379 5.48606 19.4142C5.13337 19.4142 4.78061 19.4142 4.42792 19.4142C4.42792 19.2379 4.42792 19.0615 4.42792 18.8852C4.25154 18.8852 4.07523 18.8852 3.89885 18.8852C3.89885 19.0615 3.89885 19.2379 3.89885 19.4142C3.72247 19.4142 3.54616 19.4142 3.36978 19.4142C3.1934 19.4142 3.01709 19.4142 2.84071 19.4142C2.84071 19.0615 2.84071 18.7088 2.84071 18.3561C3.01709 18.3561 3.1934 18.3561 3.36978 18.3561C3.36978 18.1797 3.36978 18.0034 3.36978 17.827C3.54616 17.827 3.72247 17.827 3.89885 17.827C3.89885 17.7389 3.89885 17.6506 3.89885 17.5625Z" fill="white"/>
<path fill-rule="evenodd" clip-rule="evenodd" d="M2.17938 17.827C2.57618 17.827 2.97298 17.827 3.36978 17.827C3.36978 18.0034 3.36978 18.1797 3.36978 18.3561C3.1934 18.3561 3.01709 18.3561 2.84071 18.3561C2.84071 18.7088 2.84071 19.0615 2.84071 19.4142C3.01709 19.4142 3.1934 19.4142 3.36978 19.4142C3.36978 19.5906 3.36978 19.7669 3.36978 19.9433C3.36978 20.296 3.36978 20.6487 3.36978 21.0014C3.54616 21.0014 3.72247 21.0014 3.89885 21.0014C3.89885 20.6487 3.89885 20.296 3.89885 19.9433C4.25154 19.9433 4.6043 19.9433 4.95699 19.9433C4.95699 20.0315 4.95699 20.1197 4.95699 20.2078C4.69246 20.2078 4.42792 20.2078 4.16339 20.2078C4.16339 21.0896 4.16339 21.9714 4.16339 22.8532C3.91988 22.8423 3.67744 22.8532 3.43592 22.8862C3.38056 22.9531 3.35854 23.0303 3.36978 23.1177C2.66433 23.1177 1.95895 23.1177 1.2535 23.1177C1.2535 23.2059 1.2535 23.2941 1.2535 23.3823C1.2127 23.3749 1.17963 23.3529 1.1543 23.3161C1.09525 23.0183 1.12831 22.7318 1.2535 22.4564C1.12831 22.2502 1.04016 22.0298 0.98897 21.795C1.14121 21.5536 1.22943 21.2891 1.2535 21.0014C1.21991 20.8245 1.20886 20.6481 1.22044 20.4724C1.28981 20.3661 1.38901 20.322 1.51804 20.3401C1.47241 20.0725 1.47241 19.8079 1.51804 19.5465C1.5017 19.4663 1.45759 19.4222 1.38577 19.4142C1.27341 19.4248 1.16317 19.4138 1.0551 19.3812C1.16026 19.312 1.25946 19.2348 1.35271 19.1497C1.36051 18.9598 1.40455 18.7834 1.48497 18.6206C1.51738 18.7061 1.52842 18.7944 1.51804 18.8852C1.69442 18.8852 1.87073 18.8852 2.04711 18.8852C2.04711 18.7088 2.04711 18.5325 2.04711 18.3561C1.98098 18.3561 1.91484 18.3561 1.84871 18.3561C1.84871 18.2238 1.84871 18.0916 1.84871 17.9593C1.9819 17.9664 2.09208 17.9224 2.17938 17.827Z" fill="white"/>
<path fill-rule="evenodd" clip-rule="evenodd" d="M23.8712 17.4964C24.0329 17.9438 24.1652 18.4068 24.268 18.8852C24.1547 18.7255 24.0555 18.5491 23.9704 18.3561C23.9397 18.0685 23.9066 17.782 23.8712 17.4964Z" fill="white"/>
<path fill-rule="evenodd" clip-rule="evenodd" d="M15.0754 17.298C15.1992 17.3217 15.2984 17.3878 15.373 17.4964C15.405 17.4337 15.416 17.3675 15.4061 17.298C15.6265 17.3749 15.6927 17.5182 15.6045 17.7278C15.9222 18.3284 16.2639 18.9125 16.6296 19.4804C16.6623 19.6108 16.6734 19.7431 16.6627 19.8772C16.1904 18.9853 15.6613 18.1256 15.0754 17.298Z" fill="white"/>
<path fill-rule="evenodd" clip-rule="evenodd" d="M19.2419 17.6286C19.2419 17.6948 19.2419 17.7609 19.2419 17.827C19.1273 17.8606 19.1052 17.9157 19.1757 17.9924C19.1144 18.123 19.0372 18.2443 18.9443 18.3561C18.8987 18.2994 18.8436 18.2554 18.7789 18.2238C18.6057 18.2982 18.4625 18.4083 18.3491 18.5545C18.327 18.5325 18.305 18.5104 18.2829 18.4884C18.1497 18.6188 18.1607 18.7291 18.316 18.819C18.2119 18.8938 18.1017 18.9049 17.9853 18.8521C17.8572 18.844 17.7691 18.7889 17.7208 18.6868C18.3136 18.4464 18.8207 18.0937 19.2419 17.6286Z" fill="white"/>
<path fill-rule="evenodd" clip-rule="evenodd" d="M11.0413 20.7369C10.9531 21.1117 10.8649 21.4864 10.7768 21.8612C10.773 21.9345 10.751 22.0007 10.7106 22.0596C10.585 22.1894 10.4307 22.2886 10.2477 22.3572C10.2974 22.4016 10.3195 22.4566 10.3138 22.5225C10.2755 22.6712 10.1873 22.7814 10.0493 22.8532C9.88574 22.8463 9.84169 22.7802 9.91702 22.6548C9.7864 22.5722 9.76431 22.473 9.85088 22.3572C9.77979 21.821 9.71366 21.2809 9.65248 20.7369C9.56029 20.5898 9.48318 20.4355 9.42101 20.274C9.37664 20.2242 9.32155 20.2021 9.25568 20.2078C9.17586 19.8587 9.04359 19.528 8.85888 19.2158C9.33861 19.1411 9.82357 19.1301 10.3138 19.1828C10.4319 19.33 10.5862 19.4071 10.7768 19.4142C10.731 19.7702 10.731 20.123 10.7768 20.4724C10.8429 20.4724 10.909 20.4724 10.9752 20.4724C10.9864 20.5598 10.9644 20.637 10.909 20.7038C10.9483 20.7345 10.9924 20.7456 11.0413 20.7369Z" fill="white"/>
<path fill-rule="evenodd" clip-rule="evenodd" d="M11.4381 18.3561C11.4083 18.8961 11.3643 19.4251 11.3058 19.9433C11.2655 19.8844 11.2435 19.8182 11.2397 19.7449C11.2713 19.2381 11.3044 18.7311 11.3389 18.2238C11.3573 18.2844 11.3903 18.3284 11.4381 18.3561Z" fill="white"/>
<path fill-rule="evenodd" clip-rule="evenodd" d="M0.98897 19.4142C1.04042 19.4576 1.08447 19.5127 1.12124 19.5796C1.0639 19.7849 1.04181 19.9944 1.0551 20.2078C1.12124 20.2078 1.18737 20.2078 1.2535 20.2078C1.33941 19.9519 1.38352 19.6874 1.38577 19.4142C1.45759 19.4222 1.5017 19.4663 1.51804 19.5465C1.47241 19.8079 1.47241 20.0725 1.51804 20.3401C1.38901 20.322 1.28981 20.3661 1.22044 20.4724C1.20886 20.6481 1.21991 20.8245 1.2535 21.0014C1.12124 21.0014 0.98897 21.0014 0.856702 21.0014C0.768546 21.795 0.768546 22.5886 0.856702 23.3823C0.750954 23.047 0.695799 22.6943 0.691368 22.3241C0.658301 21.8617 0.647323 21.3988 0.658301 20.9353C0.658301 20.8692 0.658302 20.803 0.658302 20.7369C0.825025 20.3094 0.935269 19.8684 0.98897 19.4142Z" fill="white"/>
<path fill-rule="evenodd" clip-rule="evenodd" d="M8.32981 18.8852C8.60737 18.851 8.78375 18.9612 8.85888 19.2158C9.04359 19.528 9.17586 19.8587 9.25568 20.2078C9.09749 19.958 8.95418 19.6935 8.82581 19.4142C8.64692 19.2465 8.48158 19.0701 8.32981 18.8852Z" fill="white"/>
<path fill-rule="evenodd" clip-rule="evenodd" d="M7.86687 18.7529C7.88737 19.4643 7.83222 20.1697 7.70154 20.8692C7.68315 20.9298 7.65009 20.9738 7.60234 21.0014C7.45248 21.3235 7.32021 21.6542 7.20554 21.9934C7.20554 22.0376 7.18351 22.0596 7.1394 22.0596C6.982 22.1973 6.87183 22.3736 6.80873 22.5886C6.73142 22.7878 6.62118 22.9642 6.47807 23.1177C6.52866 22.946 6.55075 22.7697 6.5442 22.5886C6.36782 22.5886 6.19151 22.5886 6.01513 22.5886C6.01513 22.0596 6.01513 21.5305 6.01513 21.0014C6.19151 21.0014 6.36782 21.0014 6.5442 21.0014C6.5442 20.6487 6.5442 20.296 6.5442 19.9433C6.78671 19.9433 7.02916 19.9433 7.27167 19.9433C7.29369 20.1197 7.31578 20.296 7.3378 20.4724C7.44805 20.4724 7.55823 20.4724 7.66847 20.4724C7.75524 19.8935 7.82137 19.3203 7.86687 18.7529Z" fill="white"/>
<path fill-rule="evenodd" clip-rule="evenodd" d="M16.6627 20.0094C16.7285 20.0037 16.7836 20.0258 16.828 20.0756C16.8835 20.2543 16.9386 20.4306 16.9933 20.6046C17.1099 20.9008 17.176 21.2094 17.1917 21.5305C17.0437 21.0207 16.8674 20.5136 16.6627 20.0094Z" fill="white"/>
<path fill-rule="evenodd" clip-rule="evenodd" d="M24.268 19.0174C24.3947 19.4406 24.4608 19.8815 24.4664 20.3401C24.4775 21.3103 24.4664 22.2803 24.4334 23.25C24.415 23.3106 24.3819 23.3546 24.3342 23.3823C24.2982 23.3001 24.2762 23.212 24.268 23.1177C24.3219 22.5015 24.366 21.8842 24.4003 21.266C24.3186 20.504 24.2744 19.7546 24.268 19.0174Z" fill="white"/>
<path fill-rule="evenodd" clip-rule="evenodd" d="M3.36978 19.9433C3.54616 19.9433 3.72247 19.9433 3.89885 19.9433C3.89885 20.296 3.89885 20.6487 3.89885 21.0014C3.72247 21.0014 3.54616 21.0014 3.36978 21.0014C3.36978 20.6487 3.36978 20.296 3.36978 19.9433Z" fill="white"/>
<path fill-rule="evenodd" clip-rule="evenodd" d="M9.25568 20.2078C9.32155 20.2021 9.37664 20.2242 9.42101 20.274C9.48318 20.4355 9.56029 20.5898 9.65248 20.7369C9.71366 21.2809 9.77979 21.821 9.85088 22.3572C9.76431 22.473 9.7864 22.5722 9.91702 22.6548C9.84169 22.7802 9.88574 22.8463 10.0493 22.8532C9.93699 23.0267 9.81577 23.0267 9.68555 22.8532C9.66353 22.4123 9.64144 21.9714 9.61941 21.5305C9.50454 21.0869 9.38332 20.646 9.25568 20.2078Z" fill="white"/>
<path fill-rule="evenodd" clip-rule="evenodd" d="M16.9933 20.6046C17.1434 20.821 17.2757 21.0525 17.3901 21.299C17.291 21.3545 17.269 21.4096 17.324 21.4644C17.3127 21.5518 17.3348 21.629 17.3901 21.6958C17.3071 21.7234 17.2629 21.7785 17.2579 21.8612C17.195 21.7673 17.1729 21.6572 17.1917 21.5305C17.176 21.2094 17.1099 20.9008 16.9933 20.6046Z" fill="white"/>
<path fill-rule="evenodd" clip-rule="evenodd" d="M7.60234 21.0014C7.55995 21.3722 7.42768 21.7029 7.20554 21.9934C7.32021 21.6542 7.45248 21.3235 7.60234 21.0014Z" fill="white"/>
<path fill-rule="evenodd" clip-rule="evenodd" d="M11.2397 20.4724C11.1761 20.9719 11.0218 21.4348 10.7768 21.8612C10.8649 21.4864 10.9531 21.1117 11.0413 20.7369C11.0328 20.6292 11.099 20.541 11.2397 20.4724Z" fill="white"/>
<path fill-rule="evenodd" clip-rule="evenodd" d="M19.6387 22.1918C19.5569 22.0522 19.4577 21.92 19.3411 21.795C19.3157 21.8318 19.2827 21.8538 19.2419 21.8612C19.2498 21.7894 19.2939 21.7452 19.3741 21.7289C19.6047 21.793 19.6929 21.9473 19.6387 22.1918Z" fill="white"/>
<path fill-rule="evenodd" clip-rule="evenodd" d="M1.2535 21.0014C1.22943 21.2891 1.14121 21.5536 0.98897 21.795C1.04016 22.0298 1.12831 22.2502 1.2535 22.4564C1.12831 22.7318 1.09525 23.0183 1.1543 23.3161C1.17963 23.3529 1.2127 23.3749 1.2535 23.3823C1.14326 23.8452 1.31964 24.0216 1.78257 23.9113C1.78257 24.0656 1.78257 24.22 1.78257 24.3743C1.52769 24.3996 1.43954 24.5319 1.51804 24.7711C1.45191 24.8152 1.38577 24.8592 1.31964 24.9033C1.46798 24.9677 1.62227 24.9898 1.78257 24.9695C1.78257 25.4104 1.78257 25.8512 1.78257 26.2921C1.95895 26.2921 2.13526 26.2921 2.31164 26.2921C2.27765 26.567 2.21152 26.8315 2.11324 27.0857C2.10418 27.2406 2.14829 27.3728 2.24551 27.4825C2.32765 27.6221 2.32765 27.7544 2.24551 27.8793C2.15563 27.5895 2.01232 27.325 1.81564 27.0857C1.78277 26.9107 1.77173 26.7344 1.78257 26.5567C1.66909 26.5481 1.55884 26.5261 1.45191 26.4905C1.45191 26.4685 1.45191 26.4464 1.45191 26.4244C1.44668 26.3298 1.4687 26.2416 1.51804 26.1599C1.40535 25.8681 1.27308 25.5815 1.12124 25.3001C1.15867 25.1072 1.15867 24.9088 1.12124 24.7049C1.0551 24.7049 0.98897 24.7049 0.922836 24.7049C0.867416 24.6823 0.845327 24.6383 0.856702 24.5727C0.950744 24.3802 1.01688 24.1708 1.0551 23.9444C1.03308 23.7373 0.966947 23.5499 0.856702 23.3823C0.768546 22.5886 0.768546 21.795 0.856702 21.0014C0.98897 21.0014 1.12124 21.0014 1.2535 21.0014Z" fill="white"/>
<path fill-rule="evenodd" clip-rule="evenodd" d="M17.324 21.4644C17.4319 21.4859 17.4981 21.552 17.5224 21.6628C17.4845 21.7854 17.4624 21.9066 17.4563 22.0265C17.519 22.0585 17.5851 22.0694 17.6547 22.0596C17.6547 22.1477 17.6547 22.236 17.6547 22.3241C17.7428 22.3241 17.831 22.3241 17.9192 22.3241C17.9192 22.236 17.9192 22.1477 17.9192 22.0596C18.0073 22.0596 18.0956 22.0596 18.1837 22.0596C18.1837 22.236 18.1837 22.4123 18.1837 22.5886C18.338 22.5886 18.4924 22.5886 18.6467 22.5886C18.6283 22.7107 18.6724 22.799 18.7789 22.8532C18.8713 22.6897 18.9264 22.5134 18.9443 22.3241C19.0073 22.2002 19.0845 22.1782 19.1757 22.258C18.9468 23.0237 18.6162 23.7291 18.1837 24.3743C17.9431 24.4827 17.7668 24.659 17.6547 24.9033C17.4119 24.9365 17.2575 24.8373 17.1917 24.6057C17.2857 24.5119 17.3518 24.4016 17.3901 24.2751C17.33 24.1567 17.319 24.0355 17.3571 23.9113C17.4275 24.1678 17.4826 24.1678 17.5224 23.9113C17.4854 23.7578 17.4192 23.6256 17.324 23.5145C17.3288 22.962 17.3068 22.4109 17.2579 21.8612C17.2629 21.7785 17.3071 21.7234 17.3901 21.6958C17.3348 21.629 17.3127 21.5518 17.324 21.4644Z" fill="white"/>
<path fill-rule="evenodd" clip-rule="evenodd" d="M10.7106 22.0596C10.6259 22.2545 10.4936 22.4088 10.3138 22.5225C10.3195 22.4566 10.2974 22.4016 10.2477 22.3572C10.4307 22.2886 10.585 22.1894 10.7106 22.0596Z" fill="white"/>
<path fill-rule="evenodd" clip-rule="evenodd" d="M7.1394 22.0596C7.08127 22.2713 6.97109 22.4477 6.80873 22.5886C6.87183 22.3736 6.982 22.1973 7.1394 22.0596Z" fill="white"/>
<path fill-rule="evenodd" clip-rule="evenodd" d="M0.658301 20.9353C0.647323 21.3988 0.658301 21.8617 0.691368 22.3241C0.695799 22.6943 0.750954 23.047 0.856702 23.3823C0.966947 23.5499 1.03308 23.7373 1.0551 23.9444C1.01688 24.1708 0.950744 24.3802 0.856702 24.5727C0.602021 23.3609 0.535888 22.1485 0.658301 20.9353Z" fill="white"/>
<path fill-rule="evenodd" clip-rule="evenodd" d="M2.84071 27.3503C2.61883 27.3232 2.42043 27.3673 2.24551 27.4825C2.14829 27.3728 2.10418 27.2406 2.11324 27.0857C2.21152 26.8315 2.27765 26.567 2.31164 26.2921C2.13526 26.2921 1.95895 26.2921 1.78257 26.2921C1.78257 25.8512 1.78257 25.4104 1.78257 24.9695C1.62227 24.9898 1.46798 24.9677 1.31964 24.9033C1.38577 24.8592 1.45191 24.8152 1.51804 24.7711C1.43954 24.5319 1.52769 24.3996 1.78257 24.3743C1.78257 24.22 1.78257 24.0656 1.78257 23.9113C1.87073 23.9113 1.95895 23.9113 2.04711 23.9113C2.04711 23.9995 2.04711 24.0877 2.04711 24.1759C2.13526 24.1759 2.22349 24.1759 2.31164 24.1759C2.31164 23.9995 2.31164 23.8232 2.31164 23.6468C2.3998 23.6468 2.48802 23.6468 2.57618 23.6468C2.57618 23.5586 2.57618 23.4704 2.57618 23.3823C2.66433 23.3823 2.75256 23.3823 2.84071 23.3823C2.84071 23.9113 2.84071 24.4404 2.84071 24.9695C2.92887 24.9695 3.01709 24.9695 3.10525 24.9695C3.10525 25.4104 3.10525 25.8512 3.10525 26.2921C3.01709 26.2921 2.92887 26.2921 2.84071 26.2921C2.84071 26.6448 2.84071 26.9976 2.84071 27.3503Z" fill="white"/>
<path fill-rule="evenodd" clip-rule="evenodd" d="M19.8371 22.6548C19.9029 22.6491 19.958 22.6712 20.0024 22.7209C20.0426 22.8245 20.0978 22.9127 20.1677 22.9855C20.3156 23.2752 20.3817 23.5838 20.3661 23.9113C20.5204 23.9113 20.6748 23.9113 20.8291 23.9113C20.8291 24.0877 20.8291 24.264 20.8291 24.4404C21.1726 24.4696 21.1726 24.5358 20.8291 24.6388C21.0001 24.7036 21.1765 24.7256 21.3581 24.7049C21.3581 25.0576 21.3581 25.4104 21.3581 25.7631C21.1818 25.7631 21.0055 25.7631 20.8291 25.7631C20.8078 26.2106 20.852 26.6515 20.9613 27.0857C20.8404 27.874 20.7963 28.6676 20.8291 29.4666C21.0506 29.4556 21.271 29.4667 21.4904 29.4996C21.521 29.6135 21.5319 29.7347 21.5235 29.8634C21.7718 29.6042 21.9812 29.3176 22.1517 29.0036C21.9485 28.8569 21.8603 28.6585 21.8872 28.4084C22.0431 28.4192 22.1974 28.4082 22.3501 28.3753C22.3879 28.2957 22.432 28.2185 22.4824 28.1439C22.5282 28.1786 22.5612 28.2227 22.5816 28.2761C22.6812 28.1726 22.7804 28.1506 22.8792 28.21C22.3667 29.148 21.7274 29.9857 20.9613 30.7231C20.8833 30.5635 20.751 30.4974 20.5645 30.5247C20.5819 30.4269 20.5598 30.3388 20.4984 30.2602C20.3877 30.5049 20.2775 30.7474 20.1677 30.9876C20.0466 31.0371 19.9363 31.1032 19.8371 31.186C19.793 31.1419 19.7489 31.0979 19.7048 31.0538C19.6607 31.1419 19.6166 31.2301 19.5725 31.3183C19.5284 31.2742 19.4844 31.2301 19.4403 31.186C19.4107 31.4362 19.3446 31.6677 19.2419 31.8804C19.3098 31.9144 19.3759 31.9474 19.4403 31.9796C18.9553 32.3967 18.4042 32.7053 17.7869 32.9055C17.9367 32.7855 18.0909 32.6643 18.2499 32.5418C18.9603 32.301 18.9382 32.2238 18.1837 32.3103C18.2037 32.1411 18.1816 31.9867 18.1176 31.8474C18.345 31.5459 18.5875 31.2593 18.8451 30.9876C18.9706 31.1112 19.1249 31.1222 19.308 31.0207C19.229 30.8449 19.2952 30.7678 19.5064 30.7892C19.5064 30.7011 19.5064 30.6128 19.5064 30.5247C19.5946 30.5247 19.6828 30.5247 19.7709 30.5247C19.7376 30.2214 19.7376 29.9348 19.7709 29.665C19.8521 29.4775 19.9403 29.2902 20.0355 29.1028C20.0134 29.0808 19.9914 29.0587 19.9693 29.0367C20.0982 28.7783 20.1644 28.5028 20.1677 28.21C20.2232 28.1346 20.2673 28.0464 20.3 27.9455C20.3786 27.884 20.4668 27.862 20.5645 27.8793C20.5755 27.6358 20.5645 27.3934 20.5315 27.1519C20.4984 27.1188 20.4653 27.0857 20.4323 27.0527C20.5177 26.8654 20.5617 26.667 20.5645 26.4575C20.5496 26.0693 20.5496 25.6836 20.5645 25.3001C20.3872 24.7429 20.288 24.1697 20.2669 23.5807C20.2312 23.3746 20.132 23.2204 19.9693 23.1177C19.9062 22.9692 19.8621 22.8149 19.8371 22.6548Z" fill="white"/>
<path fill-rule="evenodd" clip-rule="evenodd" d="M24.4664 20.3401C24.5115 20.8296 24.5556 21.3256 24.5987 21.8281C24.5447 22.3409 24.5116 22.859 24.4995 23.3823C24.4711 23.683 24.416 23.9696 24.3342 24.242C24.3342 23.9554 24.3342 23.6688 24.3342 23.3823C24.3819 23.3546 24.415 23.3106 24.4334 23.25C24.4664 22.2803 24.4775 21.3103 24.4664 20.3401Z" fill="white"/>
<path fill-rule="evenodd" clip-rule="evenodd" d="M24.268 24.242C24.246 24.3743 24.2239 24.5065 24.2019 24.6388C24.1385 24.6688 24.0834 24.7128 24.0366 24.7711C24.0037 24.9238 23.9927 25.0781 24.0035 25.234C23.6508 25.234 23.298 25.234 22.9454 25.234C22.9454 24.8813 22.9454 24.5285 22.9454 24.1759C23.298 24.1759 23.6508 24.1759 24.0035 24.1759C23.989 24.2536 24.011 24.3197 24.0696 24.3743C24.1137 24.2861 24.1578 24.1979 24.2019 24.1097C24.2547 24.1399 24.2767 24.1841 24.268 24.242Z" fill="white"/>
<path fill-rule="evenodd" clip-rule="evenodd" d="M18.1837 24.3743C18.028 24.574 17.8517 24.7504 17.6547 24.9033C17.7668 24.659 17.9431 24.4827 18.1837 24.3743Z" fill="white"/>
<path fill-rule="evenodd" clip-rule="evenodd" d="M17.324 23.5145C17.4192 23.6256 17.4854 23.7578 17.5224 23.9113C17.4826 24.1678 17.4275 24.1678 17.3571 23.9113C17.319 24.0355 17.33 24.1567 17.3901 24.2751C17.3518 24.4016 17.2857 24.5119 17.1917 24.6057C17.2575 24.8373 17.4119 24.9365 17.6547 24.9033C17.4708 25.0295 17.2944 25.1728 17.1256 25.3332C17.0446 25.3704 16.9784 25.3484 16.9272 25.2671C17.0976 24.6904 17.2299 24.1062 17.324 23.5145Z" fill="white"/>
<path fill-rule="evenodd" clip-rule="evenodd" d="M24.268 24.242C24.29 24.242 24.3121 24.242 24.3342 24.242C24.3089 24.6393 24.2207 25.014 24.0696 25.3663C24.0526 25.1105 24.0966 24.868 24.2019 24.6388C24.2239 24.5065 24.246 24.3743 24.268 24.242Z" fill="white"/>
<path fill-rule="evenodd" clip-rule="evenodd" d="M0.922836 24.7049C0.98897 24.7049 1.0551 24.7049 1.12124 24.7049C1.15867 24.9088 1.15867 25.1072 1.12124 25.3001C1.27308 25.5815 1.40535 25.8681 1.51804 26.1599C1.4687 26.2416 1.44668 26.3298 1.45191 26.4244C1.21111 25.8779 1.03473 25.3047 0.922836 24.7049Z" fill="white"/>
<path fill-rule="evenodd" clip-rule="evenodd" d="M19.9693 23.1177C20.132 23.2204 20.2312 23.3746 20.2669 23.5807C20.288 24.1697 20.3872 24.7429 20.5645 25.3001C20.5496 25.6836 20.5496 26.0693 20.5645 26.4575C20.5617 26.667 20.5177 26.8654 20.4323 27.0527C20.4653 27.0857 20.4984 27.1188 20.5315 27.1519C20.5645 27.3934 20.5755 27.6358 20.5645 27.8793C20.4668 27.862 20.3786 27.884 20.3 27.9455C20.2673 28.0464 20.2232 28.1346 20.1677 28.21C20.4808 26.4968 20.4147 24.7993 19.9693 23.1177Z" fill="white"/>
<path fill-rule="evenodd" clip-rule="evenodd" d="M14.9432 25.7631C14.9328 25.8539 14.9438 25.9421 14.9762 26.0276C15.0221 26.1148 15.0772 26.1699 15.1416 26.1929C15.05 26.2985 15.0059 26.4198 15.0093 26.5567C15.1602 26.5287 15.2704 26.5728 15.34 26.6889C15.3187 26.776 15.2967 26.8643 15.2738 26.9535C15.3461 27.1217 15.3902 27.2981 15.4061 27.4825C15.3404 27.7892 15.2963 28.0978 15.2738 28.4084C15.362 28.4084 15.4502 28.4084 15.5384 28.4084C15.5384 28.5407 15.5384 28.6729 15.5384 28.8052C15.3114 28.8222 15.0909 28.8663 14.877 28.9375C14.877 29.0256 14.877 29.1139 14.877 29.202C14.7304 29.2096 14.5981 29.2536 14.4802 29.3343C14.4646 29.0837 14.4205 29.0837 14.348 29.3343C14.2862 29.2637 14.2641 29.1755 14.2818 29.0697C14.2907 28.9512 14.2687 28.8411 14.2157 28.7391C14.4159 28.583 14.5923 28.4066 14.7448 28.21C14.8417 28.154 14.8969 28.0658 14.9101 27.9455C14.943 27.7927 14.954 27.6384 14.9432 27.4825C14.9518 27.4246 14.9298 27.3805 14.877 27.3503C14.5714 27.4522 14.2628 27.5403 13.9512 27.6148C13.9956 27.5641 14.0507 27.52 14.1165 27.4825C14.162 27.4275 14.151 27.3835 14.0834 27.3503C13.9207 27.2774 13.7553 27.2774 13.5874 27.3503C13.4335 27.3173 13.3343 27.2291 13.2898 27.0857C13.3715 27.0711 13.4376 27.027 13.4882 26.9535C13.713 27.0733 13.9555 27.1174 14.2157 27.0857C14.179 26.7883 14.223 26.5128 14.348 26.2591C14.2465 26.2263 14.1473 26.2372 14.0504 26.2921C13.9338 26.2628 13.9449 26.2297 14.0834 26.1929C13.8385 26.1546 13.5961 26.1657 13.356 26.226C13.7543 26.0081 14.1731 25.8207 14.6125 25.6639C14.7563 25.6059 14.8665 25.6389 14.9432 25.7631Z" fill="white"/>
<path fill-rule="evenodd" clip-rule="evenodd" d="M21.3581 25.7631C21.5345 25.7631 21.7108 25.7631 21.8872 25.7631C21.8872 26.1158 21.8872 26.4685 21.8872 26.8212C21.7108 26.8212 21.5345 26.8212 21.3581 26.8212C21.3581 26.4685 21.3581 26.1158 21.3581 25.7631Z" fill="white"/>
<path fill-rule="evenodd" clip-rule="evenodd" d="M5.35379 25.7631C5.32555 25.9291 5.28151 26.0834 5.22153 26.226C5.21068 26.0483 5.22172 25.8719 5.25459 25.6969C5.27992 25.7337 5.31299 25.7557 5.35379 25.7631Z" fill="white"/>
<path fill-rule="evenodd" clip-rule="evenodd" d="M24.0696 25.3663C23.9796 25.857 23.8252 26.32 23.6067 26.7551C23.7112 26.2688 23.8655 25.8059 24.0696 25.3663Z" fill="white"/>
<path fill-rule="evenodd" clip-rule="evenodd" d="M13.2898 27.0857C13.117 26.9993 12.9406 26.9111 12.7608 26.8212C12.658 26.8789 12.5698 26.8789 12.4962 26.8212C12.6096 26.7393 12.7419 26.6952 12.893 26.6889C12.893 26.6228 12.893 26.5567 12.893 26.4905C12.7631 26.5321 12.6308 26.5762 12.4962 26.6228C12.4152 26.6215 12.349 26.5995 12.2978 26.5567C12.6505 26.4464 13.0033 26.3362 13.356 26.226C13.5961 26.1657 13.8385 26.1546 14.0834 26.1929C13.9449 26.2297 13.9338 26.2628 14.0504 26.2921C14.1473 26.2372 14.2465 26.2263 14.348 26.2591C14.223 26.5128 14.179 26.7883 14.2157 27.0857C13.9555 27.1174 13.713 27.0733 13.4882 26.9535C13.4376 27.027 13.3715 27.0711 13.2898 27.0857Z" fill="white"/>
<path fill-rule="evenodd" clip-rule="evenodd" d="M14.9432 25.7631C15.0648 25.8297 15.153 25.9289 15.2077 26.0607C15.4524 26.1164 15.6508 26.2376 15.8029 26.4244C15.7588 26.811 15.7148 27.2078 15.6706 27.6148C15.5189 27.3607 15.4968 27.0962 15.6045 26.8212C15.4922 26.8194 15.4039 26.7753 15.34 26.6889C15.2704 26.5728 15.1602 26.5287 15.0093 26.5567C15.0059 26.4198 15.05 26.2985 15.1416 26.1929C15.0772 26.1699 15.0221 26.1148 14.9762 26.0276C14.9438 25.9421 14.9328 25.8539 14.9432 25.7631Z" fill="white"/>
<path fill-rule="evenodd" clip-rule="evenodd" d="M12.4962 26.8212C12.3185 26.832 12.1422 26.821 11.9672 26.7881C12.0707 26.7479 12.1589 26.6928 12.2317 26.6228C12.2317 26.5787 12.2537 26.5567 12.2978 26.5567C12.349 26.5995 12.4152 26.6215 12.4962 26.6228C12.6308 26.5762 12.7631 26.5321 12.893 26.4905C12.893 26.5567 12.893 26.6228 12.893 26.6889C12.7419 26.6952 12.6096 26.7393 12.4962 26.8212Z" fill="white"/>
<path fill-rule="evenodd" clip-rule="evenodd" d="M3.50205 28.4084C3.41389 28.4084 3.32567 28.4084 3.23751 28.4084C3.23751 28.3203 3.23751 28.232 3.23751 28.1439C3.10525 28.1439 2.97298 28.1439 2.84071 28.1439C2.84071 27.8793 2.84071 27.6148 2.84071 27.3503C3.01709 27.3503 3.1934 27.3503 3.36978 27.3503C3.36978 27.1739 3.36978 26.9976 3.36978 26.8212C3.54616 26.8212 3.72247 26.8212 3.89885 26.8212C3.89885 27.1739 3.89885 27.5267 3.89885 27.8793C3.8107 27.8793 3.72247 27.8793 3.63432 27.8793C3.66976 28.0908 3.62565 28.2672 3.50205 28.4084Z" fill="white"/>
<path fill-rule="evenodd" clip-rule="evenodd" d="M12.2317 26.6228C12.1589 26.6928 12.0707 26.7479 11.9672 26.7881C12.1422 26.821 12.3185 26.832 12.4962 26.8212C12.5698 26.8789 12.658 26.8789 12.7608 26.8212C12.9406 26.9111 13.117 26.9993 13.2898 27.0857C13.3343 27.2291 13.4335 27.3173 13.5874 27.3503C13.7553 27.2774 13.9207 27.2774 14.0834 27.3503C14.151 27.3835 14.162 27.4275 14.1165 27.4825C14.0507 27.52 13.9956 27.5641 13.9512 27.6148C13.9286 27.6702 13.8845 27.6923 13.8189 27.6809C13.6751 27.6532 13.5429 27.6532 13.4221 27.6809C13.0173 27.4201 12.8409 27.5524 12.893 28.0777C12.7748 28.0966 12.6645 28.0746 12.5624 28.0116C12.5762 27.9729 12.5983 27.9398 12.6285 27.9124C12.387 27.8794 12.1445 27.8684 11.901 27.8793C11.901 27.9896 11.901 28.0998 11.901 28.21C11.8349 28.21 11.7688 28.21 11.7026 28.21C11.5891 28.2015 11.4789 28.1795 11.372 28.1439C11.3996 28.0961 11.4436 28.0631 11.5042 28.0447C11.4193 27.9589 11.4304 27.8817 11.5373 27.8132C11.5702 27.6604 11.5811 27.5062 11.5704 27.3503C11.3302 27.3812 11.1097 27.3371 10.909 27.218C10.8051 27.3447 10.6729 27.4108 10.5122 27.4164C10.5384 27.6136 10.4943 27.79 10.38 27.9455C10.4133 28.0393 10.4795 28.0834 10.5784 28.0777C10.7004 28.1789 10.7666 28.3112 10.7768 28.4745C10.7492 28.8048 10.7272 29.1354 10.7106 29.4666C10.5122 29.4666 10.3138 29.4666 10.1154 29.4666C10.1147 29.3312 10.0927 29.1989 10.0493 29.0697C10.1003 28.9196 10.1664 28.7762 10.2477 28.6399C10.1698 28.4621 10.1698 28.2858 10.2477 28.1108C10.1866 27.991 10.1315 28.002 10.0824 28.1439C10.0499 28.0584 10.0389 27.9701 10.0493 27.8793C9.98315 27.8793 9.91702 27.8793 9.85088 27.8793C9.86861 27.7061 9.84658 27.5408 9.78475 27.3833C9.59342 27.3657 9.39502 27.3767 9.18955 27.4164C9.12196 27.3929 9.07785 27.3488 9.05728 27.2841C9.11415 27.1443 9.2244 27.0672 9.38795 27.0527C10.3595 27.0447 11.3074 26.9014 12.2317 26.6228Z" fill="white"/>
<path fill-rule="evenodd" clip-rule="evenodd" d="M1.45191 26.4905C1.55884 26.5261 1.66909 26.5481 1.78257 26.5567C1.77173 26.7344 1.78277 26.9107 1.81564 27.0857C2.01232 27.325 2.15563 27.5895 2.24551 27.8793C2.48498 28.0714 2.67234 28.3138 2.80765 28.6068C2.85143 28.7598 2.88449 28.9141 2.90685 29.0697C2.30397 28.2835 1.81895 27.4237 1.45191 26.4905Z" fill="white"/>
<path fill-rule="evenodd" clip-rule="evenodd" d="M11.372 28.1439C11.0952 28.0256 10.8086 27.9705 10.5122 27.9785C10.549 28.0039 10.571 28.0369 10.5784 28.0777C10.4795 28.0834 10.4133 28.0393 10.38 27.9455C10.4943 27.79 10.5384 27.6136 10.5122 27.4164C10.6729 27.4108 10.8051 27.3447 10.909 27.218C11.1097 27.3371 11.3302 27.3812 11.5704 27.3503C11.5811 27.5062 11.5702 27.6604 11.5373 27.8132C11.4304 27.8817 11.4193 27.9589 11.5042 28.0447C11.4436 28.0631 11.3996 28.0961 11.372 28.1439Z" fill="white"/>
<path fill-rule="evenodd" clip-rule="evenodd" d="M9.05728 27.2841C9.07785 27.3488 9.12196 27.3929 9.18955 27.4164C9.39502 27.3767 9.59342 27.3657 9.78475 27.3833C9.84658 27.5408 9.86861 27.7061 9.85088 27.8793C9.91702 27.8793 9.98315 27.8793 10.0493 27.8793C10.0389 27.9701 10.0499 28.0584 10.0824 28.1439C10.1315 28.002 10.1866 27.991 10.2477 28.1108C10.1698 28.2858 10.1698 28.4621 10.2477 28.6399C10.1664 28.7762 10.1003 28.9196 10.0493 29.0697C10.0927 29.1989 10.1147 29.3312 10.1154 29.4666C10.3138 29.4666 10.5122 29.4666 10.7106 29.4666C10.7272 29.1354 10.7492 28.8048 10.7768 28.4745C10.8573 29.0638 10.8352 29.659 10.7106 30.2602C10.7547 30.2822 10.7988 30.3043 10.8429 30.3263C11.0645 30.2598 11.2849 30.1936 11.5042 30.1279C11.5042 30.172 11.5042 30.216 11.5042 30.2602C11.4149 30.4802 11.5031 30.5684 11.7688 30.5247C11.8954 30.5059 12.0056 30.5279 12.0994 30.5908C12.0591 30.6497 12.0371 30.7159 12.0333 30.7892C11.9196 30.969 11.7653 31.1013 11.5704 31.186C11.4345 31.1771 11.3243 31.2212 11.2397 31.3183C11.1225 31.1995 10.9902 31.0893 10.8429 30.9876C10.8041 31.0014 10.7711 31.0235 10.7437 31.0538C10.7108 31.2065 10.6998 31.3608 10.7106 31.5167C10.5374 31.5344 10.3721 31.5124 10.2146 31.4506C10.2254 31.0555 10.2364 30.6587 10.2477 30.2602C10.1595 30.2602 10.0713 30.2602 9.98315 30.2602C9.97389 30.1528 10.018 30.0756 10.1154 30.0287C10.0219 29.8115 9.93368 29.5911 9.85088 29.3674C9.93904 29.2457 9.92799 29.2126 9.81782 29.2681C9.80393 29.0873 9.74877 28.922 9.65248 28.7721C9.6827 28.7448 9.70479 28.7117 9.71862 28.6729C9.62385 28.4856 9.57973 28.2872 9.58635 28.0777C9.47795 28.0496 9.3898 28.0496 9.32181 28.0777C9.19675 27.8491 9.08651 27.6066 8.99114 27.3503C8.99935 27.3101 9.02137 27.2881 9.05728 27.2841Z" fill="white"/>
<path fill-rule="evenodd" clip-rule="evenodd" d="M15.8029 26.4244C15.8617 26.9988 15.8396 27.572 15.7368 28.1439C15.647 28.216 15.5809 28.3042 15.5384 28.4084C15.4502 28.4084 15.362 28.4084 15.2738 28.4084C15.2963 28.0978 15.3404 27.7892 15.4061 27.4825C15.3902 27.2981 15.3461 27.1217 15.2738 26.9535C15.2967 26.8643 15.3187 26.776 15.34 26.6889C15.4039 26.7753 15.4922 26.8194 15.6045 26.8212C15.4968 27.0962 15.5189 27.3607 15.6706 27.6148C15.7148 27.2078 15.7588 26.811 15.8029 26.4244Z" fill="white"/>
<path fill-rule="evenodd" clip-rule="evenodd" d="M5.22153 26.226C5.19567 27.0231 5.22873 27.8167 5.32073 28.6068C5.5348 29.3484 5.8324 30.0539 6.21353 30.7231C6.23013 30.8335 6.27424 30.9327 6.3458 31.0207C6.23774 31.0534 6.12749 31.0643 6.01513 31.0538C5.98259 31.3155 6.0267 31.5579 6.1474 31.7812C6.12339 31.8264 6.10137 31.8705 6.08126 31.9135C5.95329 31.8705 5.82103 31.8485 5.68446 31.8474C5.68446 31.8253 5.68446 31.8033 5.68446 31.7812C5.52653 31.6379 5.37218 31.4836 5.22153 31.3183C5.07405 31.2334 4.91976 31.1673 4.75859 31.1199C4.71448 31.1199 4.69246 31.0979 4.69246 31.0538C4.74166 30.8256 4.65344 30.7154 4.42792 30.7231C4.44148 30.4925 4.35326 30.4264 4.16339 30.5247C4.11928 30.5247 4.09725 30.5027 4.09725 30.4586C4.05314 30.2381 3.92087 30.1059 3.70045 30.0618C3.63432 30.0397 3.59021 29.9956 3.56818 29.9295C3.59153 29.655 3.47031 29.4787 3.20445 29.4004C3.17204 29.3149 3.161 29.2267 3.17138 29.1359C3.08323 29.1359 2.995 29.1359 2.90685 29.1359C2.90685 29.1139 2.90685 29.0918 2.90685 29.0697C2.88449 28.9141 2.85143 28.7598 2.80765 28.6068C2.67234 28.3138 2.48498 28.0714 2.24551 27.8793C2.32765 27.7544 2.32765 27.6221 2.24551 27.4825C2.42043 27.3673 2.61883 27.3232 2.84071 27.3503C2.84071 27.6148 2.84071 27.8793 2.84071 28.1439C2.97298 28.1439 3.10525 28.1439 3.23751 28.1439C3.23751 28.232 3.23751 28.3203 3.23751 28.4084C3.32567 28.4084 3.41389 28.4084 3.50205 28.4084C3.50205 28.4966 3.50205 28.5848 3.50205 28.6729C3.63432 28.6729 3.76658 28.6729 3.89885 28.6729C3.89885 28.7611 3.89885 28.8493 3.89885 28.9375C4.07523 28.9375 4.25154 28.9375 4.42792 28.9375C4.42792 29.0256 4.42792 29.1139 4.42792 29.202C5.12735 29.2064 5.25962 28.9309 4.82472 28.3753C4.86526 28.2334 4.90931 28.09 4.95699 27.9455C5.12418 27.8795 5.12418 27.8244 4.95699 27.7801C5.00943 27.7084 5.05355 27.6312 5.08926 27.5487C5.10632 27.2595 5.0843 26.9619 5.02312 26.6559C5.0714 26.405 5.10447 26.1515 5.12232 25.8953C5.13542 26.0198 5.16849 26.13 5.22153 26.226Z" fill="white"/>
<path fill-rule="evenodd" clip-rule="evenodd" d="M14.9432 27.4825C14.954 27.6384 14.943 27.7927 14.9101 27.9455C14.8969 28.0658 14.8417 28.154 14.7448 28.21C14.8001 27.9572 14.8662 27.7147 14.9432 27.4825Z" fill="white"/>
<path fill-rule="evenodd" clip-rule="evenodd" d="M13.8189 27.6809C13.3241 27.9721 12.795 28.1926 12.2317 28.3423C12.0408 28.3222 11.8645 28.2781 11.7026 28.21C11.7688 28.21 11.8349 28.21 11.901 28.21C11.901 28.0998 11.901 27.9896 11.901 27.8793C12.1445 27.8684 12.387 27.8794 12.6285 27.9124C12.5983 27.9398 12.5762 27.9729 12.5624 28.0116C12.6645 28.0746 12.7748 28.0966 12.893 28.0777C12.8409 27.5524 13.0173 27.4201 13.4221 27.6809C13.5429 27.6532 13.6751 27.6532 13.8189 27.6809Z" fill="white"/>
<path fill-rule="evenodd" clip-rule="evenodd" d="M14.2818 29.0697C14.2907 28.9512 14.2687 28.8411 14.2157 28.7391C14.0465 28.8685 14.0685 28.9787 14.2818 29.0697Z" fill="white"/>
<path fill-rule="evenodd" clip-rule="evenodd" d="M15.7368 28.1439C15.7066 28.5552 15.6404 28.952 15.5384 29.3343C15.4775 29.2968 15.4554 29.3408 15.4722 29.4666C15.1628 29.4775 14.8542 29.4665 14.5464 29.4335C14.5096 29.4082 14.4876 29.3751 14.4802 29.3343C14.5981 29.2536 14.7304 29.2096 14.877 29.202C14.877 29.1139 14.877 29.0256 14.877 28.9375C15.0909 28.8663 15.3114 28.8222 15.5384 28.8052C15.5384 28.6729 15.5384 28.5407 15.5384 28.4084C15.5809 28.3042 15.647 28.216 15.7368 28.1439Z" fill="white"/>
<path fill-rule="evenodd" clip-rule="evenodd" d="M14.4802 29.3343C14.4876 29.3751 14.5096 29.4082 14.5464 29.4335C14.8542 29.4665 15.1628 29.4775 15.4722 29.4666C15.4554 29.3408 15.4775 29.2968 15.5384 29.3343C15.5366 29.7014 15.4925 30.0541 15.4061 30.3924C15.2622 30.4726 15.2402 30.5829 15.34 30.7231C15.2944 30.8517 15.2613 30.9839 15.2408 31.1199C15.2412 30.8308 15.0979 30.7206 14.8109 30.7892C14.5347 30.866 14.2701 30.9763 14.0173 31.1199C13.8506 31.0349 13.6743 30.9908 13.4882 30.9876C13.4697 30.8247 13.4035 30.6814 13.2898 30.5578C13.0463 30.6017 12.8039 30.5906 12.5624 30.5247C12.4716 30.5143 12.3833 30.5254 12.2978 30.5578C12.2181 30.6488 12.13 30.7259 12.0333 30.7892C12.0371 30.7159 12.0591 30.6497 12.0994 30.5908C12.2251 30.4962 12.3685 30.4301 12.5293 30.3924C12.5513 30.4144 12.5734 30.4365 12.5954 30.4586C12.6285 30.3814 12.6836 30.3263 12.7608 30.2932C12.6545 30.2238 12.6104 30.1246 12.6285 29.9956C12.7318 30.011 12.82 30.0551 12.893 30.1279C13.1289 30.2542 13.3935 30.3424 13.6866 30.3924C13.8756 30.3149 14.0409 30.3369 14.1826 30.4586C14.2264 30.3604 14.2816 30.2723 14.348 30.194C14.348 29.9075 14.348 29.6208 14.348 29.3343C14.4205 29.0837 14.4646 29.0837 14.4802 29.3343Z" fill="white"/>
<path fill-rule="evenodd" clip-rule="evenodd" d="M9.98315 30.2602C10.0403 30.6771 10.0844 31.096 10.1154 31.5167C10.0677 31.489 10.0346 31.445 10.0162 31.3844C9.94757 30.2443 9.7161 29.1422 9.32181 28.0777C9.3898 28.0496 9.47795 28.0496 9.58635 28.0777C9.57973 28.2872 9.62385 28.4856 9.71862 28.6729C9.70479 28.7117 9.6827 28.7448 9.65248 28.7721C9.74877 28.922 9.80393 29.0873 9.81782 29.2681C9.92799 29.2126 9.93904 29.2457 9.85088 29.3674C9.93368 29.5911 10.0219 29.8115 10.1154 30.0287C10.018 30.0756 9.97389 30.1528 9.98315 30.2602Z" fill="white"/>
<path fill-rule="evenodd" clip-rule="evenodd" d="M2.90685 29.1359C2.995 29.1359 3.08323 29.1359 3.17138 29.1359C3.161 29.2267 3.17204 29.3149 3.20445 29.4004C3.47031 29.4787 3.59153 29.655 3.56818 29.9295C3.32481 29.6859 3.10432 29.4214 2.90685 29.1359Z" fill="white"/>
<path fill-rule="evenodd" clip-rule="evenodd" d="M13.885 29.9956C13.8373 30.0233 13.8042 30.0673 13.7858 30.1279C13.7638 30.0838 13.7417 30.0397 13.7197 29.9956C13.6237 30.0112 13.5245 30.0112 13.4221 29.9956C13.5196 29.8351 13.5085 29.6808 13.389 29.5327C13.3229 29.5988 13.2568 29.665 13.1906 29.7311C13.0716 29.5769 12.9393 29.5769 12.7938 29.7311C12.7674 29.716 12.7565 29.6939 12.7608 29.665C12.8049 29.5768 12.8489 29.4886 12.893 29.4004C13.3096 29.1626 13.5411 29.2949 13.5874 29.7972C13.6806 29.8819 13.7798 29.9481 13.885 29.9956Z" fill="white"/>
<path fill-rule="evenodd" clip-rule="evenodd" d="M20.1677 28.21C20.1644 28.5028 20.0982 28.7783 19.9693 29.0367C19.9914 29.0587 20.0134 29.0808 20.0355 29.1028C19.9403 29.2902 19.8521 29.4775 19.7709 29.665C19.5852 29.8991 19.4419 30.1637 19.3411 30.4586C19.3104 30.4193 19.2993 30.3752 19.308 30.3263C19.6342 29.6308 19.9208 28.9253 20.1677 28.21Z" fill="white"/>
<path fill-rule="evenodd" clip-rule="evenodd" d="M13.4221 29.9956C13.2449 29.9882 13.0686 30.0323 12.893 30.1279C12.82 30.0551 12.7318 30.011 12.6285 29.9956C12.4405 29.9938 12.3634 29.9055 12.397 29.7311C12.5094 29.6712 12.6307 29.6491 12.7608 29.665C12.7565 29.6939 12.7674 29.716 12.7938 29.7311C12.9393 29.5769 13.0716 29.5769 13.1906 29.7311C13.2568 29.665 13.3229 29.5988 13.389 29.5327C13.5085 29.6808 13.5196 29.8351 13.4221 29.9956Z" fill="white"/>
<path fill-rule="evenodd" clip-rule="evenodd" d="M12.893 29.4004C12.8489 29.4886 12.8049 29.5768 12.7608 29.665C12.6307 29.6491 12.5094 29.6712 12.397 29.7311C12.3634 29.9055 12.4405 29.9938 12.6285 29.9956C12.6104 30.1246 12.6545 30.2238 12.7608 30.2932C12.6836 30.3263 12.6285 30.3814 12.5954 30.4586C12.5734 30.4365 12.5513 30.4144 12.5293 30.3924C12.3685 30.4301 12.2251 30.4962 12.0994 30.5908C12.0056 30.5279 11.8954 30.5059 11.7688 30.5247C11.7671 30.3475 11.6789 30.2594 11.5042 30.2602C11.5042 30.216 11.5042 30.172 11.5042 30.1279C11.9517 29.8571 12.4146 29.6146 12.893 29.4004Z" fill="white"/>
<path fill-rule="evenodd" clip-rule="evenodd" d="M13.4221 29.9956C13.5245 30.0112 13.6237 30.0112 13.7197 29.9956C13.7417 30.0397 13.7638 30.0838 13.7858 30.1279C13.8042 30.0673 13.8373 30.0233 13.885 29.9956C14.0297 30.0788 14.184 30.145 14.348 30.194C14.2816 30.2723 14.2264 30.3604 14.1826 30.4586C14.0409 30.3369 13.8756 30.3149 13.6866 30.3924C13.3935 30.3424 13.1289 30.2542 12.893 30.1279C13.0686 30.0323 13.2449 29.9882 13.4221 29.9956Z" fill="white"/>
<path fill-rule="evenodd" clip-rule="evenodd" d="M9.98315 30.2602C10.0713 30.2602 10.1595 30.2602 10.2477 30.2602C10.2364 30.6587 10.2254 31.0555 10.2146 31.4506C10.3721 31.5124 10.5374 31.5344 10.7106 31.5167C10.6998 31.3608 10.7108 31.2065 10.7437 31.0538C10.7711 31.0235 10.8041 31.0014 10.8429 30.9876C10.9902 31.0893 11.1225 31.1995 11.2397 31.3183C11.1722 31.4145 11.0951 31.4365 11.0082 31.3844C10.9485 31.4639 10.8714 31.519 10.7768 31.5498C10.609 31.5621 10.4547 31.5951 10.3138 31.649C10.2128 31.6538 10.1467 31.6097 10.1154 31.5167C10.0844 31.096 10.0403 30.6771 9.98315 30.2602Z" fill="white"/>
<path fill-rule="evenodd" clip-rule="evenodd" d="M11.7688 30.5247C11.7671 30.3475 11.6789 30.2594 11.5042 30.2602C11.4149 30.4802 11.5031 30.5684 11.7688 30.5247Z" fill="white"/>
<path fill-rule="evenodd" clip-rule="evenodd" d="M20.9613 30.7231C20.5154 31.2129 20.0084 31.6317 19.4403 31.9796C19.3759 31.9474 19.3098 31.9144 19.2419 31.8804C19.3446 31.6677 19.4107 31.4362 19.4403 31.186C19.4844 31.2301 19.5284 31.2742 19.5725 31.3183C19.6166 31.2301 19.6607 31.1419 19.7048 31.0538C19.7489 31.0979 19.793 31.1419 19.8371 31.186C19.9363 31.1032 20.0466 31.0371 20.1677 30.9876C20.2775 30.7474 20.3877 30.5049 20.4984 30.2602C20.5598 30.3388 20.5819 30.4269 20.5645 30.5247C20.751 30.4974 20.8833 30.5635 20.9613 30.7231Z" fill="white"/>
<path fill-rule="evenodd" clip-rule="evenodd" d="M4.09725 30.4586C4.05314 30.2381 3.92087 30.1059 3.70045 30.0618C3.8107 30.216 3.94296 30.3483 4.09725 30.4586Z" fill="white"/>
<path fill-rule="evenodd" clip-rule="evenodd" d="M15.4061 30.3924C15.4252 30.7724 15.3922 31.1471 15.3069 31.5167C15.0862 31.7031 14.8327 31.7581 14.5464 31.682C13.8917 31.2778 13.2304 30.892 12.5624 30.5247C12.8039 30.5906 13.0463 30.6017 13.2898 30.5578C13.4035 30.6814 13.4697 30.8247 13.4882 30.9876C13.6743 30.9908 13.8506 31.0349 14.0173 31.1199C14.2701 30.9763 14.5347 30.866 14.8109 30.7892C15.0979 30.7206 15.2412 30.8308 15.2408 31.1199C15.2613 30.9839 15.2944 30.8517 15.34 30.7231C15.2402 30.5829 15.2622 30.4726 15.4061 30.3924Z" fill="white"/>
<path fill-rule="evenodd" clip-rule="evenodd" d="M4.69246 31.0538C4.49405 30.8995 4.31768 30.7231 4.16339 30.5247C4.35326 30.4264 4.44148 30.4925 4.42792 30.7231C4.65344 30.7154 4.74166 30.8256 4.69246 31.0538Z" fill="white"/>
<path fill-rule="evenodd" clip-rule="evenodd" d="M19.7709 29.665C19.7376 29.9348 19.7376 30.2214 19.7709 30.5247C19.6828 30.5247 19.5946 30.5247 19.5064 30.5247C19.5064 30.6128 19.5064 30.7011 19.5064 30.7892C19.2952 30.7678 19.229 30.8449 19.308 31.0207C19.1249 31.1222 18.9706 31.1112 18.8451 30.9876C19.0015 30.7656 19.1558 30.5452 19.308 30.3263C19.2993 30.3752 19.3104 30.4193 19.3411 30.4586C19.4419 30.1637 19.5852 29.8991 19.7709 29.665Z" fill="white"/>
<path fill-rule="evenodd" clip-rule="evenodd" d="M6.21353 30.7231C6.71833 31.3381 7.26942 31.9113 7.86687 32.4426C7.82779 32.4856 7.78374 32.5297 7.73461 32.5748C7.78394 32.6566 7.80596 32.7448 7.80074 32.8394C7.69499 32.8216 7.60684 32.8437 7.5362 32.9055C7.22207 32.8233 6.93545 32.691 6.67647 32.5087C6.68513 32.4598 6.67409 32.4157 6.6434 32.3764C6.47893 32.1774 6.29157 32.0231 6.08126 31.9135C6.10137 31.8705 6.12339 31.8264 6.1474 31.7812C6.0267 31.5579 5.98259 31.3155 6.01513 31.0538C6.12749 31.0643 6.23774 31.0534 6.3458 31.0207C6.27424 30.9327 6.23013 30.8335 6.21353 30.7231Z" fill="white"/>
<path fill-rule="evenodd" clip-rule="evenodd" d="M4.75859 31.1199C4.91976 31.1673 5.07405 31.2334 5.22153 31.3183C5.37218 31.4836 5.52653 31.6379 5.68446 31.7812C5.32866 31.6255 5.02008 31.4051 4.75859 31.1199Z" fill="white"/>
<path fill-rule="evenodd" clip-rule="evenodd" d="M11.5704 31.186C11.23 31.5348 10.8111 31.6891 10.3138 31.649C10.4547 31.5951 10.609 31.5621 10.7768 31.5498C10.8714 31.519 10.9485 31.4639 11.0082 31.3844C11.0951 31.4365 11.1722 31.4145 11.2397 31.3183C11.3243 31.2212 11.4345 31.1771 11.5704 31.186Z" fill="white"/>
<path fill-rule="evenodd" clip-rule="evenodd" d="M5.68446 31.8474C5.82103 31.8485 5.95329 31.8705 6.08126 31.9135C6.29157 32.0231 6.47893 32.1774 6.6434 32.3764C6.67409 32.4157 6.68513 32.4598 6.67647 32.5087C6.30923 32.3366 5.97856 32.1161 5.68446 31.8474Z" fill="white"/>
<path fill-rule="evenodd" clip-rule="evenodd" d="M18.1176 31.8474C18.1816 31.9867 18.2037 32.1411 18.1837 32.3103C18.9382 32.2238 18.9603 32.301 18.2499 32.5418C18.0909 32.6643 17.9367 32.7855 17.7869 32.9055C17.7643 32.9609 17.7203 32.983 17.6547 32.9716C17.6636 32.7787 17.6195 32.6023 17.5224 32.4426C17.708 32.2291 17.9064 32.0307 18.1176 31.8474Z" fill="white"/>
<path fill-rule="evenodd" clip-rule="evenodd" d="M17.5224 32.4426C17.6195 32.6023 17.6636 32.7787 17.6547 32.9716C17.5672 32.9829 17.4901 32.9609 17.4232 32.9055C17.3202 33.0555 17.1769 33.1326 16.9933 33.137C17.0301 33.1623 17.0521 33.1954 17.0595 33.2362C17.0595 33.2803 17.0374 33.3023 16.9933 33.3023C16.8314 33.238 16.655 33.2159 16.4643 33.2362C16.7967 32.9483 17.1494 32.6838 17.5224 32.4426Z" fill="white"/>
<path fill-rule="evenodd" clip-rule="evenodd" d="M7.86687 32.4426C8.2271 32.6562 8.57986 32.8877 8.92501 33.137C8.84783 33.2141 8.77072 33.2913 8.69354 33.3684C8.29806 33.2331 7.91231 33.0788 7.5362 32.9055C7.60684 32.8437 7.69499 32.8216 7.80074 32.8394C7.80596 32.7448 7.78394 32.6566 7.73461 32.5748C7.78374 32.5297 7.82779 32.4856 7.86687 32.4426Z" fill="white"/>
<path fill-rule="evenodd" clip-rule="evenodd" d="M17.6547 32.9716C17.4724 33.0843 17.274 33.1725 17.0595 33.2362C17.0521 33.1954 17.0301 33.1623 16.9933 33.137C17.1769 33.1326 17.3202 33.0555 17.4232 32.9055C17.4901 32.9609 17.5672 32.9829 17.6547 32.9716Z" fill="white"/>
<path fill-rule="evenodd" clip-rule="evenodd" d="M16.4643 33.2362C16.655 33.2159 16.8314 33.238 16.9933 33.3023C16.7076 33.3902 16.421 33.4784 16.1336 33.5668C16.0661 33.5336 16.055 33.4896 16.1005 33.4346C16.2182 33.3592 16.3395 33.2931 16.4643 33.2362Z" fill="white"/>
</svg>
