<svg width="517" height="60" viewBox="0 0 517 60" fill="none" xmlns="http://www.w3.org/2000/svg">
<path d="M7.875 1.75V54.85L4.725 51.775H47.25V58H0.825V1.75H7.875ZM73.6143 58.975C68.6643 58.975 64.2893 58.05 60.4893 56.2C56.7393 54.35 53.8143 51.75 51.7143 48.4C49.6143 45.05 48.5643 41.2 48.5643 36.85C48.5643 32.45 49.6143 28.6 51.7143 25.3C53.8143 22 56.7393 19.425 60.4893 17.575C64.2893 15.725 68.6643 14.8 73.6143 14.8C78.6143 14.8 82.9893 15.725 86.7393 17.575C90.4893 19.425 93.4143 22 95.5143 25.3C97.6643 28.6 98.7393 32.45 98.7393 36.85C98.7393 41.2 97.6643 45.05 95.5143 48.4C93.4143 51.75 90.4893 54.35 86.7393 56.2C82.9893 58.05 78.6143 58.975 73.6143 58.975ZM73.6143 53.2C77.3143 53.2 80.5143 52.55 83.2143 51.25C85.9143 49.9 87.9893 48 89.4393 45.55C90.9393 43.1 91.6893 40.2 91.6893 36.85C91.6893 33.55 90.9393 30.675 89.4393 28.225C87.9893 25.775 85.9143 23.875 83.2143 22.525C80.5143 21.175 77.3143 20.5 73.6143 20.5C69.9643 20.5 66.7643 21.175 64.0143 22.525C61.3143 23.875 59.2393 25.775 57.7893 28.225C56.3393 30.675 55.6143 33.55 55.6143 36.85C55.6143 40.2 56.3393 43.1 57.7893 45.55C59.2393 48 61.3143 49.9 64.0143 51.25C66.7643 52.55 69.9643 53.2 73.6143 53.2ZM152.214 41.95C151.664 45.3 150.289 48.25 148.089 50.8C145.939 53.35 143.189 55.35 139.839 56.8C136.489 58.25 132.789 58.975 128.739 58.975C124.039 58.975 119.889 58.05 116.289 56.2C112.689 54.3 109.864 51.7 107.814 48.4C105.814 45.05 104.814 41.2 104.814 36.85C104.814 32.5 105.814 28.675 107.814 25.375C109.864 22.025 112.689 19.425 116.289 17.575C119.889 15.725 124.039 14.8 128.739 14.8C132.789 14.8 136.489 15.525 139.839 16.975C143.189 18.375 145.939 20.35 148.089 22.9C150.289 25.45 151.664 28.425 152.214 31.825H145.089C144.339 28.325 142.464 25.575 139.464 23.575C136.514 21.525 132.939 20.5 128.739 20.5C125.339 20.5 122.364 21.175 119.814 22.525C117.314 23.875 115.364 25.775 113.964 28.225C112.564 30.625 111.864 33.5 111.864 36.85C111.864 40.2 112.564 43.1 113.964 45.55C115.364 48 117.314 49.9 119.814 51.25C122.364 52.55 125.339 53.2 128.739 53.2C132.989 53.2 136.589 52.175 139.539 50.125C142.539 48.075 144.389 45.35 145.089 41.95H152.214ZM200.517 58L199.017 42.025L200.892 36.85L199.017 31.75L200.517 15.775H207.567L205.617 36.85L207.567 58H200.517ZM203.217 36.85C202.117 41.25 200.417 45.125 198.117 48.475C195.867 51.775 193.117 54.35 189.867 56.2C186.667 58.05 183.117 58.975 179.217 58.975C175.067 58.975 171.392 58.05 168.192 56.2C164.992 54.3 162.467 51.7 160.617 48.4C158.817 45.05 157.917 41.2 157.917 36.85C157.917 32.45 158.817 28.6 160.617 25.3C162.467 22 164.992 19.425 168.192 17.575C171.392 15.725 175.067 14.8 179.217 14.8C183.117 14.8 186.667 15.725 189.867 17.575C193.117 19.425 195.892 22 198.192 25.3C200.492 28.6 202.167 32.45 203.217 36.85ZM164.967 36.85C164.967 40.05 165.617 42.875 166.917 45.325C168.267 47.775 170.092 49.7 172.392 51.1C174.742 52.45 177.392 53.125 180.342 53.125C183.342 53.125 186.092 52.45 188.592 51.1C191.142 49.7 193.392 47.775 195.342 45.325C197.342 42.875 198.967 40.05 200.217 36.85C198.967 33.65 197.342 30.825 195.342 28.375C193.392 25.925 191.142 24.025 188.592 22.675C186.092 21.275 183.342 20.575 180.342 20.575C177.392 20.575 174.742 21.275 172.392 22.675C170.092 24.025 168.267 25.925 166.917 28.375C165.617 30.825 164.967 33.65 164.967 36.85ZM217.887 0.249997H224.787V58H217.887V0.249997Z" fill="white"/>
<path d="M317.803 1.75V58H303.028V7.3L306.328 7.675L284.578 58H268.828L247.003 7.825L250.378 7.45V58H235.603V1.75H259.603L279.778 50.05H273.778L293.803 1.75H317.803ZM376.402 24.25V35.5H335.227V24.25H376.402ZM345.802 29.875L342.127 52.45L335.827 45.4H378.877V58H326.602L330.877 29.875L326.602 1.75H378.502V14.35H335.827L342.127 7.3L345.802 29.875ZM439.998 47.125L435.198 48.1V1.75H450.273V58H430.698L398.223 11.725L402.948 10.75V58H387.873V1.75H407.973L439.998 47.125ZM475.524 32.875C475.524 35.425 475.999 37.65 476.949 39.55C477.949 41.4 479.399 42.825 481.299 43.825C483.249 44.825 485.624 45.325 488.424 45.325C491.274 45.325 493.649 44.825 495.549 43.825C497.449 42.825 498.874 41.4 499.824 39.55C500.774 37.65 501.249 35.425 501.249 32.875V1.75H516.849V33.625C516.849 38.775 515.649 43.275 513.249 47.125C510.899 50.925 507.599 53.9 503.349 56.05C499.099 58.15 494.124 59.2 488.424 59.2C482.774 59.2 477.799 58.15 473.499 56.05C469.249 53.9 465.924 50.925 463.524 47.125C461.174 43.275 459.999 38.775 459.999 33.625V1.75H475.524V32.875Z" fill="#709ED0"/>
</svg>
